<svg width="48" height="43" viewBox="0 0 48 43" fill="none" xmlns="http://www.w3.org/2000/svg">
<g filter="url(#filter0_d_0_1)">
<path fill-rule="evenodd" clip-rule="evenodd" d="M29 30C30.3132 30 31.6136 29.7413 32.8268 29.2388C34.0401 28.7362 35.1425 27.9997 36.0711 27.0711C36.9997 26.1425 37.7362 25.0401 38.2388 23.8268C38.7413 22.6136 39 21.3132 39 20C39 16.0218 37.4196 12.2064 34.6066 9.3934C31.7936 6.58035 27.9782 5 24 5C20.0218 5 16.2064 6.58035 13.3934 9.3934C10.5804 12.2064 9 16.0218 9 20C9 21.3132 9.25866 22.6136 9.7612 23.8268C10.2637 25.0401 11.0003 26.1425 11.9289 27.0711C12.8575 27.9997 13.9599 28.7362 15.1732 29.2388C16.3864 29.7413 17.6868 30 19 30H29ZM24 9C21.0826 9 18.2847 10.1589 16.2218 12.2218C14.1589 14.2847 13 17.0826 13 20C13 20.7879 13.1552 21.5681 13.4567 22.2961C13.7583 23.0241 14.2002 23.6855 14.7574 24.2426C15.3145 24.7998 15.9759 25.2417 16.7039 25.5433C17.4319 25.8448 18.2121 26 19 26H29C29.7879 26 30.5681 25.8448 31.2961 25.5433C32.0241 25.2417 32.6855 24.7998 33.2426 24.2426C33.7998 23.6855 34.2417 23.0241 34.5433 22.2961C34.8448 21.5681 35 20.7879 35 20C35 17.0826 33.8411 14.2847 31.7782 12.2218C29.7153 10.1589 26.9174 9 24 9Z" fill="#F1F1D3"/>
</g>
<g filter="url(#filter1_d_0_1)">
<path fill-rule="evenodd" clip-rule="evenodd" d="M17 35C15.2928 35 13.6024 34.612 12.0251 33.8582C10.4479 33.1044 9.0148 31.9995 7.80761 30.6066C6.60047 29.2137 5.64289 27.5602 4.98957 25.7403C4.33626 23.9204 4 21.9698 4 20C4 14.6957 6.10714 9.60859 9.85787 5.85786C13.6086 2.10714 18.6957 0 24 0C29.3043 0 34.3914 2.10714 38.1421 5.85786C41.8929 9.60859 44 14.6957 44 20C44 21.9698 43.6637 23.9204 43.0104 25.7403C42.3571 27.5602 41.3995 29.2137 40.1924 30.6066C38.9852 31.9995 37.5521 33.1044 35.9749 33.8582C34.3976 34.612 32.7072 35 31 35H17ZM12.6863 8.68629C15.6869 5.68571 19.7565 4 24 4C28.2435 4 32.3131 5.68571 35.3137 8.68629C38.3143 11.6869 40 15.7565 40 20C40 21.5179 39.7404 23.0107 39.2457 24.3888C38.751 25.7668 38.0376 26.9854 37.1696 27.9869C36.3026 28.9873 35.3045 29.7452 34.25 30.2492C33.1981 30.752 32.0957 31 31 31H17C15.9043 31 14.8019 30.752 13.75 30.2492C12.6955 29.7452 11.6974 28.9873 10.8304 27.9869C9.96242 26.9854 9.24903 25.7668 8.75433 24.3888C8.25961 23.0107 8 21.5179 8 20C8 15.7565 9.68571 11.6869 12.6863 8.68629Z" fill="#F1F1D3"/>
</g>
<g filter="url(#filter2_d_0_1)">
<path d="M29 25H23.9956C23.6596 24.9997 23.3261 24.9655 23 24.899C22.368 24.77 21.7637 24.5192 21.2222 24.1573C20.3999 23.6079 19.759 22.8271 19.3806 21.9134C19.2579 21.6171 19.1645 21.3112 19.101 21C18.9686 20.3515 18.9657 19.6799 19.0961 19.0245C19.289 18.0546 19.7652 17.1637 20.4645 16.4645C21.1637 15.7652 22.0546 15.289 23.0245 15.0961C23.0549 15.09 23.0852 15.0843 23.1156 15.0788C23.4087 15.0262 23.7047 15 24 15C24.6535 15 25.3038 15.1281 25.9134 15.3806C26.827 15.759 27.6079 16.3999 28.1573 17.2221C28.7068 18.0444 29 19.0111 29 20H25C25 19.8022 24.9414 19.6089 24.8315 19.4444C24.7216 19.28 24.5654 19.1518 24.3827 19.0761C24.2 19.0004 23.9989 18.9806 23.8049 19.0192C23.6109 19.0578 23.4327 19.153 23.2929 19.2929C23.153 19.4327 23.0578 19.6109 23.0192 19.8049C22.9806 19.9989 23.0004 20.2 23.0761 20.3827C23.1518 20.5654 23.28 20.7216 23.4444 20.8315C23.6089 20.9414 23.8022 21 24 21H29C29.1313 21 29.2614 20.9741 29.3827 20.9239C29.504 20.8736 29.6142 20.8 29.7071 20.7071C29.8 20.6142 29.8736 20.504 29.9239 20.3827C29.9741 20.2614 30 20.1313 30 20C30 18.4087 29.3679 16.8826 28.2426 15.7574C27.1174 14.6321 25.5913 14 24 14C23.8274 14 23.6556 14.0074 23.485 14.0221C23.0657 14.0582 22.6535 14.1382 22.255 14.2594C21.8629 14.3785 21.484 14.5376 21.1243 14.734C20.7123 14.959 20.3255 15.233 19.973 15.5522C19.8996 15.6186 19.8277 15.687 19.7574 15.7574C19.2651 16.2496 18.8672 16.8187 18.5753 17.4363C18.4294 17.7451 18.3099 18.066 18.2185 18.3956C18.1139 18.7724 18.0459 19.1604 18.0166 19.5544C18.0056 19.7022 18 19.8508 18 20C18 20.7841 18.1537 21.5646 18.4567 22.2961C18.9109 23.3925 19.6799 24.3295 20.6666 24.9888C20.6722 24.9926 20.6778 24.9963 20.6834 25H19C18.3434 25 17.6932 24.8707 17.0866 24.6194C16.48 24.3681 15.9288 23.9998 15.4645 23.5355C15.0002 23.0712 14.6319 22.52 14.3806 21.9134C14.1293 21.3068 14 20.6566 14 20C14 17.3478 15.0536 14.8043 16.9289 12.9289C18.8043 11.0536 21.3478 10 24 10C26.6522 10 29.1957 11.0536 31.0711 12.9289C32.9464 14.8043 34 17.3478 34 20C34 20.6566 33.8707 21.3068 33.6194 21.9134C33.3681 22.52 32.9998 23.0712 32.5355 23.5355C32.0712 23.9998 31.52 24.3681 30.9134 24.6194C30.3068 24.8707 29.6566 25 29 25Z" fill="#F1F1D3"/>
</g>
<defs>
<filter id="filter0_d_0_1" x="5" y="5" width="38" height="33" filterUnits="userSpaceOnUse" color-interpolation-filters="sRGB">
<feFlood flood-opacity="0" result="BackgroundImageFix"/>
<feColorMatrix in="SourceAlpha" type="matrix" values="0 0 0 0 0 0 0 0 0 0 0 0 0 0 0 0 0 0 127 0" result="hardAlpha"/>
<feOffset dy="4"/>
<feGaussianBlur stdDeviation="2"/>
<feComposite in2="hardAlpha" operator="out"/>
<feColorMatrix type="matrix" values="0 0 0 0 0 0 0 0 0 0 0 0 0 0 0 0 0 0 0.25 0"/>
<feBlend mode="normal" in2="BackgroundImageFix" result="effect1_dropShadow_0_1"/>
<feBlend mode="normal" in="SourceGraphic" in2="effect1_dropShadow_0_1" result="shape"/>
</filter>
<filter id="filter1_d_0_1" x="0" y="0" width="48" height="43" filterUnits="userSpaceOnUse" color-interpolation-filters="sRGB">
<feFlood flood-opacity="0" result="BackgroundImageFix"/>
<feColorMatrix in="SourceAlpha" type="matrix" values="0 0 0 0 0 0 0 0 0 0 0 0 0 0 0 0 0 0 127 0" result="hardAlpha"/>
<feOffset dy="4"/>
<feGaussianBlur stdDeviation="2"/>
<feComposite in2="hardAlpha" operator="out"/>
<feColorMatrix type="matrix" values="0 0 0 0 0 0 0 0 0 0 0 0 0 0 0 0 0 0 0.25 0"/>
<feBlend mode="normal" in2="BackgroundImageFix" result="effect1_dropShadow_0_1"/>
<feBlend mode="normal" in="SourceGraphic" in2="effect1_dropShadow_0_1" result="shape"/>
</filter>
<filter id="filter2_d_0_1" x="10" y="10" width="28" height="23" filterUnits="userSpaceOnUse" color-interpolation-filters="sRGB">
<feFlood flood-opacity="0" result="BackgroundImageFix"/>
<feColorMatrix in="SourceAlpha" type="matrix" values="0 0 0 0 0 0 0 0 0 0 0 0 0 0 0 0 0 0 127 0" result="hardAlpha"/>
<feOffset dy="4"/>
<feGaussianBlur stdDeviation="2"/>
<feComposite in2="hardAlpha" operator="out"/>
<feColorMatrix type="matrix" values="0 0 0 0 0 0 0 0 0 0 0 0 0 0 0 0 0 0 0.25 0"/>
<feBlend mode="normal" in2="BackgroundImageFix" result="effect1_dropShadow_0_1"/>
<feBlend mode="normal" in="SourceGraphic" in2="effect1_dropShadow_0_1" result="shape"/>
</filter>
</defs>
</svg>
