<?xml version="1.0" standalone="no"?>
<!DOCTYPE svg PUBLIC "-//W3C//DTD SVG 20010904//EN"
 "http://www.w3.org/TR/2001/REC-SVG-20010904/DTD/svg10.dtd">
<svg version="1.0" xmlns="http://www.w3.org/2000/svg"
 width="768.000000pt" height="768.000000pt" viewBox="0 0 768.000000 768.000000"
 preserveAspectRatio="xMidYMid meet">
<metadata>
Created by potrace 1.14, written by Peter Selinger 2001-2017
</metadata>
<g transform="translate(0.000000,768.000000) scale(0.100000,-0.100000)"
fill="#000000" stroke="none">
<path d="M3638 7275 c-2 -1 -39 -6 -84 -9 -44 -4 -89 -8 -100 -10 -10 -2 -41
-7 -69 -10 -78 -11 -120 -18 -125 -21 -3 -2 -24 -6 -46 -9 -83 -13 -165 -34
-324 -83 -408 -125 -802 -342 -1130 -622 -84 -71 -269 -256 -346 -346 -262
-304 -473 -674 -601 -1050 -30 -88 -78 -253 -88 -303 -2 -9 -8 -38 -14 -65 -6
-26 -14 -64 -17 -83 -3 -20 -8 -46 -10 -58 -16 -74 -34 -248 -38 -362 -2 -39
-6 -76 -10 -82 -3 -6 -2 -13 4 -17 6 -4 7 -12 3 -18 -10 -16 -10 -48 0 -69 4
-10 4 -18 0 -18 -5 0 -7 -17 -5 -37 2 -21 5 -72 7 -113 2 -41 5 -75 5 -75 1 0
3 -12 4 -26 2 -14 6 -31 10 -37 4 -7 2 -12 -4 -12 -7 0 -8 -6 -2 -17 5 -10 12
-40 15 -68 6 -50 10 -72 24 -130 6 -30 8 -39 17 -85 3 -14 12 -52 21 -85 10
-33 17 -66 18 -72 0 -7 4 -13 9 -13 4 0 8 -10 8 -23 0 -13 3 -27 8 -31 4 -4 7
-11 8 -14 4 -29 30 -102 36 -102 4 0 8 -6 8 -14 0 -15 52 -133 101 -228 16
-32 26 -58 22 -58 -4 0 2 -6 12 -14 12 -9 16 -19 11 -32 -4 -10 -4 -15 0 -11
9 9 43 -31 50 -60 4 -13 10 -23 15 -23 5 0 9 -7 9 -15 0 -8 5 -15 10 -15 6 0
10 -6 10 -14 0 -8 4 -16 8 -18 4 -1 23 -25 42 -53 19 -27 41 -56 48 -63 7 -8
9 -18 6 -24 -4 -6 -2 -8 4 -4 6 3 21 -8 33 -26 13 -18 32 -41 44 -52 11 -10
19 -22 18 -27 -2 -5 4 -9 13 -9 10 0 14 -6 10 -15 -3 -9 0 -15 8 -15 18 0 58
-45 49 -55 -5 -4 -3 -5 4 -1 6 3 18 -2 25 -12 7 -10 50 -49 96 -87 45 -37 82
-73 82 -78 0 -6 3 -8 6 -4 6 6 76 -41 82 -55 2 -5 10 -8 17 -8 8 0 18 -8 24
-17 5 -10 11 -16 13 -13 2 2 30 -12 63 -33 33 -20 64 -36 69 -36 5 0 12 -3 15
-8 6 -9 115 -63 128 -64 5 -1 19 -7 33 -14 32 -17 63 -29 73 -27 4 1 7 -3 7
-9 0 -5 4 -7 10 -4 6 3 10 3 10 -2 0 -4 14 -9 31 -10 17 -1 36 -7 43 -12 6 -5
25 -11 41 -14 17 -3 45 -10 63 -16 18 -5 35 -10 37 -10 12 -2 21 -3 30 -6 6
-1 18 -3 28 -3 12 -1 15 -6 11 -14 -6 -10 -5 -10 8 -1 8 7 17 11 20 8 3 -3 36
-8 74 -11 38 -3 74 -10 81 -16 7 -5 13 -5 17 1 4 6 18 6 35 1 19 -5 33 -4 40
3 6 6 11 7 11 2 0 -6 18 -10 40 -10 22 0 40 4 40 10 0 5 5 4 12 -3 8 -8 17 -8
31 0 17 9 19 8 13 -7 -5 -14 -4 -15 7 -7 7 6 22 9 32 8 11 -2 28 1 38 6 11 5
17 5 17 -1 0 -6 7 -7 17 -4 11 4 14 3 9 -5 -4 -7 4 -5 20 3 15 8 32 11 38 7
15 -9 38 -9 59 1 9 4 17 4 17 -1 0 -5 12 -7 28 -5 36 5 134 3 144 -3 4 -3 8 0
8 7 0 8 3 9 13 0 8 -6 16 -8 20 -5 8 8 97 11 97 3 0 -7 85 -2 108 6 6 2 12 1
12 -3 0 -4 16 -7 35 -7 19 0 35 3 35 8 0 5 6 4 13 -2 8 -6 17 -8 20 -5 3 4 32
6 64 5 32 -1 74 -2 93 -2 19 1 46 1 60 1 14 0 37 -2 53 -4 15 -2 30 1 33 6 3
4 10 5 17 1 16 -10 127 -10 127 1 0 5 6 3 13 -3 8 -6 17 -8 20 -4 7 6 44 6
145 1 30 -2 55 -1 58 3 2 3 15 5 29 3 14 -2 36 -6 50 -8 14 -2 28 1 31 6 3 4
11 5 17 1 17 -10 127 -10 127 1 0 5 6 4 13 -2 6 -5 21 -6 32 -2 11 4 27 4 35
0 23 -12 23 -12 53 -1 16 6 27 7 27 1 0 -5 9 -6 22 -1 12 4 37 5 55 1 19 -5
33 -4 33 2 0 5 5 6 12 2 15 -9 93 -8 108 1 5 3 10 3 10 -2 0 -10 52 -9 68 1 6
3 14 2 17 -4 4 -6 12 -7 18 -3 7 5 38 8 69 8 32 0 58 3 58 7 0 5 10 6 21 5 12
-2 46 2 75 9 30 7 54 9 54 6 0 -4 5 0 10 8 8 12 10 12 10 1 0 -11 3 -11 15 -1
12 10 15 10 15 -1 0 -11 2 -12 9 -1 4 7 14 14 22 15 8 2 20 6 27 11 7 4 16 5
19 2 3 -3 19 2 35 10 19 10 27 11 23 4 -4 -7 4 -4 19 5 14 10 35 15 46 12 11
-3 18 -1 14 4 -5 9 26 25 62 31 11 2 21 5 24 8 10 10 114 55 122 53 4 -2 8 2
8 8 0 6 7 9 15 5 8 -3 14 0 12 6 -1 7 3 13 8 13 23 4 75 32 68 38 -3 4 -1 7 6
7 7 0 32 14 57 31 24 16 49 27 56 23 7 -4 8 -3 4 4 -4 7 3 17 18 24 14 6 26
14 26 17 0 4 18 17 40 31 22 14 40 28 40 33 0 4 4 6 9 3 5 -3 12 1 15 10 3 8
11 12 16 9 6 -4 9 -2 8 3 -2 5 12 23 30 39 17 17 32 29 32 26 0 -2 16 14 36
36 20 22 41 38 46 35 5 -3 7 -1 6 4 -4 14 98 123 107 114 5 -4 5 -2 2 4 -8 13
37 66 48 56 5 -4 5 -2 1 5 -8 14 23 55 36 47 4 -3 5 1 3 9 -3 7 3 22 15 32 11
10 20 22 20 26 0 4 20 36 43 71 24 35 52 79 63 98 10 19 21 37 24 40 11 11
116 233 130 275 6 19 16 35 21 35 6 0 8 4 5 9 -3 5 0 24 8 42 7 19 17 43 21
54 4 11 9 25 11 30 1 6 16 60 33 121 17 61 36 137 42 170 6 32 13 63 16 68 3
4 7 27 10 50 8 77 10 101 17 146 4 25 8 85 10 133 2 48 6 91 10 94 3 3 1 12
-5 20 -7 7 -7 13 -2 13 6 0 7 18 3 44 -3 24 -3 53 1 65 5 11 5 21 1 21 -4 0
-8 33 -9 73 -1 88 -10 189 -27 307 -32 234 -150 637 -237 813 -15 31 -26 57
-24 57 6 0 -92 186 -153 290 -301 515 -768 951 -1308 1224 -157 79 -367 166
-464 191 -8 3 -53 16 -99 29 -85 26 -274 70 -346 81 -57 8 -171 24 -230 31
-53 6 -501 14 -507 9z m201 -635 c10 5 21 6 25 3 3 -4 48 -8 100 -9 96 -2 204
-12 215 -18 3 -2 26 -5 51 -7 25 -1 53 -6 62 -11 9 -4 34 -10 55 -12 53 -5
232 -53 312 -83 36 -13 77 -26 91 -29 14 -3 30 -11 36 -19 6 -8 14 -12 17 -8
4 3 45 -13 92 -36 46 -22 89 -41 94 -41 5 0 11 -3 13 -7 2 -5 32 -23 68 -41
84 -42 164 -92 168 -103 2 -5 8 -9 14 -9 11 0 92 -54 118 -79 9 -9 25 -21 36
-28 10 -6 18 -16 16 -23 -1 -6 2 -9 7 -6 9 6 57 -31 121 -93 19 -18 45 -40 58
-48 12 -9 22 -22 22 -31 0 -8 2 -13 5 -10 9 8 123 -111 185 -193 14 -18 30
-37 35 -43 31 -32 115 -151 115 -162 0 -8 5 -14 10 -14 6 0 10 -7 10 -15 0 -8
5 -15 10 -15 6 0 10 -5 10 -12 0 -6 10 -25 23 -42 39 -54 69 -115 61 -128 -4
-6 -3 -8 3 -5 11 7 46 -56 46 -80 0 -7 5 -13 10 -13 5 0 6 -7 3 -16 -3 -8 -2
-13 3 -10 5 3 14 -9 21 -27 6 -17 18 -44 26 -60 9 -15 12 -32 9 -37 -3 -6 -1
-10 4 -10 6 0 11 -8 11 -18 0 -10 3 -22 7 -25 11 -11 54 -140 56 -167 1 -14 5
-27 8 -30 4 -3 9 -18 10 -35 2 -16 7 -32 11 -35 4 -3 9 -23 12 -45 2 -22 5
-41 5 -42 1 -2 1 -6 2 -10 0 -5 5 -13 10 -20 7 -7 6 -14 -1 -18 -8 -5 -8 -11
1 -21 6 -8 9 -23 6 -34 -3 -11 -1 -18 4 -14 5 3 10 -7 10 -23 3 -56 19 -205
24 -221 3 -8 0 -10 -7 -6 -7 5 -8 3 -2 -7 12 -19 12 -33 -1 -41 -6 -5 -6 -8 2
-8 8 0 11 -14 9 -40 -2 -22 1 -40 6 -40 5 0 7 -4 3 -10 -3 -5 -6 -25 -7 -45
-1 -19 -5 -35 -10 -35 -5 0 -2 -7 6 -16 9 -8 13 -21 9 -27 -4 -7 -9 -34 -11
-62 -1 -27 -8 -52 -13 -54 -7 -2 -7 -6 2 -11 10 -7 10 -11 0 -24 -10 -12 -10
-16 -2 -16 7 0 9 -5 5 -11 -3 -6 -9 -28 -11 -48 -3 -20 -10 -39 -17 -43 -8 -6
-8 -8 1 -8 9 0 10 -7 3 -25 -5 -14 -7 -25 -5 -25 2 0 0 -12 -6 -27 -10 -25
-14 -43 -18 -81 0 -7 -4 -11 -8 -9 -5 3 -8 -9 -9 -27 0 -18 -4 -41 -9 -52 -4
-10 -9 -22 -9 -26 -1 -3 -4 -10 -8 -14 -5 -4 -8 -15 -8 -25 0 -10 -11 -43 -25
-73 -14 -30 -25 -60 -25 -65 0 -6 -4 -11 -10 -11 -5 0 -9 -6 -7 -12 1 -7 -3
-12 -10 -11 -7 2 -10 -3 -7 -11 6 -15 -69 -164 -98 -196 -9 -10 -14 -20 -11
-24 3 -3 -2 -8 -11 -12 -9 -3 -16 -11 -16 -16 0 -9 -65 -98 -115 -157 -36 -43
-68 -70 -77 -65 -5 3 -8 2 -7 -3 4 -23 -2 -35 -17 -29 -9 3 -12 2 -9 -5 8 -12
-26 -40 -39 -32 -5 4 -6 2 -3 -4 6 -10 -4 -21 -68 -68 -22 -16 -43 -34 -47
-40 -4 -5 -8 -7 -8 -2 0 4 -9 -2 -21 -14 -11 -11 -27 -18 -35 -15 -8 3 -13 2
-10 -3 6 -10 -100 -74 -121 -74 -7 0 -13 -4 -13 -9 0 -5 -4 -6 -10 -3 -5 3
-10 1 -10 -6 0 -7 -3 -9 -7 -6 -3 4 -15 -1 -25 -10 -15 -14 -21 -14 -27 -4 -6
10 -10 9 -15 -4 -3 -9 -10 -14 -15 -11 -5 4 -11 2 -13 -3 -3 -9 -52 -22 -85
-24 -7 0 -13 -5 -13 -10 0 -5 -15 -7 -34 -5 -19 2 -32 0 -30 -4 3 -4 -3 -8
-13 -9 -10 0 -31 -3 -46 -5 -22 -4 -27 -2 -21 8 5 9 2 8 -10 -2 -12 -9 -46
-15 -98 -16 -44 -2 -83 -5 -86 -8 -3 -4 -14 2 -25 11 -11 10 -17 12 -13 6 5
-9 -2 -12 -26 -9 -18 2 -39 -1 -45 -6 -8 -7 -13 -7 -13 -1 0 6 -12 8 -26 5
-21 -4 -25 -2 -19 9 7 11 6 12 -6 2 -8 -6 -41 -12 -73 -12 -32 0 -60 -2 -64
-5 -3 -3 -11 -1 -18 5 -8 7 -14 7 -19 -1 -4 -6 -13 -7 -23 -2 -9 5 -28 7 -42
5 -34 -5 -35 -5 -112 0 -37 2 -65 0 -62 -5 3 -4 0 -8 -5 -8 -6 0 -11 3 -11 8
0 4 -17 7 -37 6 -21 -1 -44 3 -52 9 -12 9 -13 9 -7 -1 6 -10 -3 -12 -39 -9
-25 2 -49 -1 -52 -5 -2 -5 -12 -1 -20 9 -8 10 -12 13 -9 7 7 -14 -134 -16
-152 -1 -9 7 -11 6 -6 -6 4 -12 1 -14 -15 -10 -12 3 -18 10 -14 17 4 6 -1 5
-10 -2 -9 -8 -21 -11 -27 -7 -6 4 -17 1 -25 -5 -8 -7 -15 -9 -15 -4 0 10 -177
11 -187 1 -3 -4 -17 0 -29 8 -21 14 -23 14 -17 -1 5 -13 2 -15 -13 -7 -21 10
-152 10 -177 0 -9 -3 -19 -2 -23 4 -4 6 -11 6 -20 -2 -8 -6 -14 -7 -14 -3 0 5
-21 9 -47 8 -27 -1 -54 3 -62 10 -12 9 -13 8 -7 -2 7 -11 -2 -13 -43 -10 -28
3 -51 1 -51 -3 0 -4 -9 -5 -20 -2 -11 3 -17 10 -13 17 5 8 3 8 -8 0 -8 -6 -38
-11 -66 -10 -29 1 -53 -2 -53 -5 0 -4 -9 -5 -20 -2 -11 3 -17 10 -13 17 4 6
-1 5 -10 -2 -9 -8 -21 -11 -27 -7 -6 4 -17 1 -25 -5 -8 -7 -15 -8 -15 -3 0 5
-29 7 -66 6 -49 -2 -63 0 -58 10 6 9 5 9 -7 0 -18 -14 -161 -8 -241 11 -16 3
-39 8 -53 11 -17 4 -23 10 -19 18 5 9 4 9 -6 0 -10 -9 -20 -9 -47 2 -18 8 -33
12 -33 10 0 -2 -26 7 -57 21 -32 14 -70 31 -85 37 -16 7 -28 16 -28 20 0 5 -4
6 -9 2 -5 -3 -15 1 -23 8 -7 7 -28 19 -45 26 -18 7 -33 17 -33 22 0 5 -6 9
-13 9 -17 0 -49 34 -41 43 3 3 -2 4 -13 3 -10 -2 -30 10 -46 25 -15 16 -31 29
-35 29 -15 0 -52 46 -45 55 5 4 3 5 -4 1 -12 -7 -53 30 -53 48 0 5 -3 7 -6 3
-3 -3 -20 11 -37 31 -18 20 -38 41 -44 45 -7 4 -13 12 -13 17 0 5 -10 20 -22
33 -35 36 -63 79 -62 94 1 7 -3 10 -9 6 -6 -4 -8 0 -4 10 4 11 2 14 -9 10 -7
-3 -14 0 -14 6 0 6 -15 34 -34 63 -47 74 -77 139 -69 151 3 6 2 7 -3 4 -6 -3
-16 9 -23 26 -7 18 -22 52 -33 76 -11 25 -21 54 -22 65 -1 12 -10 36 -19 53
-10 18 -18 50 -20 72 -1 21 -5 37 -9 35 -5 -3 -19 46 -34 122 -1 6 -5 26 -9
43 -5 22 -3 31 7 31 8 0 6 5 -5 11 -15 9 -16 13 -5 27 10 12 10 14 1 8 -9 -5
-13 1 -14 21 -1 15 -3 39 -5 53 -2 14 -5 68 -7 120 -3 52 -6 100 -7 105 -6 24
1 46 12 39 7 -5 8 -3 2 7 -9 15 -13 139 -4 139 3 0 6 26 7 58 1 31 4 68 6 82
3 14 5 40 6 58 1 23 5 31 14 26 9 -5 9 -4 1 5 -13 15 2 102 20 113 8 5 7 8 -2
8 -8 0 -10 5 -5 13 9 14 10 19 12 48 0 11 5 18 9 15 5 -3 8 3 8 12 0 47 5 73
12 68 4 -3 7 9 6 25 -1 17 4 33 11 35 6 3 11 16 9 30 -1 13 2 24 7 24 5 0 8 3
7 8 -5 17 71 213 86 224 6 4 7 8 3 8 -5 0 -5 6 0 13 4 6 8 15 9 20 1 4 2 10 3
13 0 4 9 0 19 -7 15 -13 16 -12 4 2 -10 13 -10 22 -1 43 7 14 15 24 18 22 3
-2 7 6 7 17 2 23 100 197 118 209 6 4 7 8 3 8 -8 0 4 17 53 77 6 7 10 15 10
19 0 4 17 27 38 52 20 25 44 56 53 70 26 38 118 139 199 219 102 100 117 113
180 164 30 24 61 50 68 56 7 7 20 13 28 13 8 0 14 4 14 8 0 12 61 55 77 55 7
0 11 3 8 5 -6 6 60 52 74 52 6 0 11 5 11 10 0 6 4 10 10 10 5 0 31 14 57 30
50 32 69 38 57 18 -4 -8 -3 -10 2 -5 5 5 9 13 9 18 0 21 368 178 480 204 6 1
18 5 28 10 9 4 24 5 32 1 8 -3 15 -2 15 3 0 12 207 54 221 45 7 -4 9 -3 5 4
-4 6 1 11 11 11 10 0 45 3 78 7 33 4 77 8 97 8 21 1 38 3 38 6 0 3 30 5 68 5
37 -1 76 2 87 6 11 4 21 3 23 -2 2 -5 12 -5 21 1z"/>
<path d="M3775 6482 c-1 -1 -41 -5 -89 -7 -80 -4 -129 -9 -184 -20 -13 -2 -22
1 -22 8 0 9 -2 9 -8 0 -4 -7 -26 -15 -47 -18 -22 -4 -78 -15 -124 -25 -47 -10
-89 -16 -95 -13 -5 3 -6 1 -3 -4 4 -7 -9 -14 -31 -19 -40 -8 -48 -10 -59 -14
-5 -2 -12 -4 -18 -5 -5 -1 -23 -8 -40 -15 -16 -7 -34 -14 -40 -16 -36 -9 -141
-50 -143 -56 -2 -5 -12 -8 -23 -8 -10 0 -19 -4 -19 -9 0 -5 -9 -11 -20 -14
-11 -3 -24 -6 -28 -7 -4 -1 -18 -10 -32 -19 -42 -29 -108 -60 -114 -54 -3 4
-6 1 -6 -5 0 -15 -57 -45 -70 -37 -6 3 -7 -1 -4 -9 3 -9 1 -16 -6 -16 -6 0
-26 -11 -44 -25 -18 -14 -36 -25 -39 -25 -7 0 -37 -23 -64 -49 -13 -12 -16
-12 -25 0 -8 12 -9 12 -5 -1 4 -15 -41 -57 -55 -53 -5 2 -8 -4 -8 -12 0 -8 -4
-15 -9 -15 -4 0 -20 -11 -35 -25 -15 -14 -32 -25 -37 -25 -6 0 -7 -4 -4 -10 3
-5 2 -10 -3 -10 -4 0 -19 -10 -32 -22 -14 -13 -28 -22 -32 -21 -5 2 -7 -1 -6
-6 2 -4 -29 -43 -69 -85 -49 -52 -76 -75 -85 -70 -10 6 -11 5 -1 -7 10 -12 9
-18 -6 -31 -10 -9 -38 -42 -62 -74 -24 -33 -47 -60 -51 -62 -5 -2 -8 -8 -8
-12 0 -8 -57 -99 -69 -110 -4 -3 -15 -21 -25 -40 -10 -19 -30 -56 -44 -82 -14
-26 -30 -44 -36 -41 -5 3 -6 1 -2 -5 3 -5 -8 -41 -26 -79 -18 -37 -31 -72 -30
-76 1 -4 -4 -10 -12 -13 -8 -3 -12 -12 -9 -20 3 -8 0 -14 -7 -14 -6 0 -9 -4
-6 -9 3 -5 -2 -26 -11 -47 -9 -22 -17 -43 -18 -49 0 -5 -7 -9 -15 -7 -11 3
-11 0 -1 -12 9 -10 9 -16 1 -21 -6 -4 -9 -13 -6 -20 2 -7 -2 -22 -10 -34 -8
-11 -13 -21 -9 -21 3 0 -1 -15 -8 -32 -8 -18 -12 -39 -10 -45 3 -7 0 -13 -6
-13 -6 0 -8 -6 -5 -14 3 -8 0 -17 -5 -21 -6 -3 -9 -10 -6 -15 3 -5 -1 -35 -9
-66 -8 -32 -13 -61 -10 -65 2 -4 0 -10 -4 -13 -5 -3 -8 -18 -6 -33 1 -15 0
-32 -4 -38 -6 -10 -8 -25 -11 -101 -1 -24 -5 -33 -13 -28 -7 5 -8 3 -2 -7 13
-21 14 -39 2 -39 -6 0 -5 -6 2 -15 10 -12 10 -15 0 -15 -10 0 -10 -3 0 -15 8
-9 8 -15 2 -15 -7 0 -8 -10 -2 -29 4 -16 7 -31 5 -33 -9 -9 -13 -58 -4 -58 6
0 6 -8 -1 -20 -6 -11 -7 -20 -3 -20 10 0 10 -47 0 -57 -4 -3 -3 -11 3 -18 5
-6 10 -37 12 -68 2 -31 6 -57 9 -57 6 0 9 -26 13 -92 0 -14 4 -24 9 -21 4 2 7
-2 8 -9 1 -16 5 -34 18 -75 5 -18 7 -33 3 -33 -4 0 -2 -4 4 -8 7 -4 14 -18 15
-32 2 -14 8 -28 12 -31 4 -3 9 -16 10 -27 1 -12 4 -22 7 -22 8 0 35 -67 29
-72 -2 -2 6 -15 19 -28 13 -14 21 -33 18 -42 -2 -10 0 -16 4 -13 4 3 23 -21
40 -52 18 -32 53 -84 77 -116 24 -31 41 -62 38 -67 -4 -6 -2 -9 3 -8 11 4 151
-140 144 -147 -3 -3 0 -5 7 -5 6 0 22 -9 34 -21 55 -52 188 -150 252 -185 39
-21 72 -42 73 -46 2 -4 10 -8 18 -8 9 0 12 -5 8 -12 -4 -7 -3 -8 4 -4 7 4 26
0 44 -8 84 -37 132 -56 144 -56 8 0 14 -4 14 -8 0 -5 6 -9 13 -10 6 0 19 -3
27 -5 8 -2 33 -7 55 -12 22 -4 47 -11 55 -15 16 -8 108 -23 153 -24 17 -1 27
-7 27 -16 0 -9 3 -11 8 -4 8 12 112 13 112 1 0 -4 9 -3 20 3 11 6 20 7 20 2 0
-10 30 -9 48 2 6 4 12 3 12 -2 0 -9 61 -8 77 1 5 3 15 2 23 -3 7 -4 24 -4 36
0 14 6 26 5 29 0 3 -6 15 -6 29 0 13 5 26 6 29 4 10 -10 92 -11 105 -1 8 6 12
6 12 -2 0 -7 8 -8 23 -2 13 5 30 5 37 1 8 -5 22 -4 32 1 17 9 22 5 19 -15 -1
-5 5 -4 13 3 8 7 32 10 55 8 22 -2 43 -1 46 2 12 11 61 5 73 -9 10 -11 12 -11
6 -1 -5 11 -2 13 14 9 12 -3 23 -1 26 6 2 6 5 6 5 1 1 -11 103 -11 121 0 5 3
10 2 10 -4 0 -7 8 -7 23 -2 13 5 30 5 37 1 8 -5 22 -4 32 1 10 5 18 6 18 2 0
-4 27 -8 60 -8 33 0 60 4 60 10 0 5 5 4 12 -3 7 -7 17 -8 30 -1 11 6 18 6 18
0 0 -5 10 -7 23 -5 12 3 27 5 32 5 79 -6 125 -5 125 3 0 4 6 3 13 -3 8 -6 17
-8 20 -4 6 6 39 6 150 1 31 -2 57 1 57 6 0 5 6 3 13 -3 8 -6 16 -9 19 -6 4 4
117 13 238 18 25 1 47 4 50 8 10 11 151 40 162 33 7 -4 8 -3 4 4 -4 7 -1 12 6
13 22 1 42 6 73 20 17 7 32 13 35 14 3 1 22 9 44 18 21 9 42 14 47 11 5 -3 9
-1 9 3 0 5 26 22 58 38 31 16 84 46 117 67 32 21 65 36 72 34 7 -3 12 -2 12 2
-4 24 3 34 18 28 10 -4 14 -4 11 0 -4 3 16 25 45 47 29 22 59 49 68 59 9 10
22 18 28 18 7 0 10 4 7 9 -6 10 23 26 39 22 5 -2 7 1 3 4 -11 11 10 45 28 45
9 0 12 5 8 12 -5 7 -2 9 9 5 11 -4 14 -2 11 7 -3 8 3 20 13 27 10 8 29 31 43
51 13 20 28 34 32 32 4 -3 5 2 2 10 -3 9 -1 16 5 16 6 0 20 18 31 39 11 22 28
45 37 50 10 6 14 11 10 11 -5 0 0 13 9 29 10 17 21 28 24 26 4 -2 6 6 6 18 -1
12 4 21 11 20 7 -2 10 4 7 12 -4 8 -1 15 6 15 6 0 9 4 6 8 -2 4 2 21 9 37 14
30 37 85 40 95 0 3 7 16 15 30 7 14 13 26 12 27 -4 8 11 62 17 59 3 -2 7 6 8
17 2 38 22 127 31 141 3 6 5 19 4 29 -2 10 2 26 10 35 11 13 11 14 -1 7 -11
-6 -13 -4 -8 9 4 10 7 29 7 42 0 18 4 23 13 18 8 -5 8 -2 -2 9 -11 14 -11 17
0 17 9 0 10 3 4 8 -11 8 -13 37 -3 48 4 3 3 15 -3 25 -5 11 -6 19 -1 19 5 0 8
18 8 40 -1 22 -5 40 -9 40 -4 0 -3 9 3 20 6 11 7 20 2 20 -14 0 -8 54 8 68 11
9 12 12 1 10 -14 -3 -16 5 -25 97 -5 59 -11 100 -19 140 -6 28 -21 108 -23
120 0 6 -4 17 -7 25 -4 8 -8 26 -9 40 -2 14 -6 30 -9 35 -3 6 -12 33 -18 60
-7 28 -17 59 -22 70 -4 11 -10 29 -11 40 -2 11 -7 23 -12 26 -4 4 -9 20 -9 37
-1 17 -5 28 -9 26 -7 -5 -12 14 -11 43 1 7 -3 11 -7 8 -10 -6 -62 114 -54 127
4 6 3 8 -4 4 -6 -4 -16 8 -23 29 -7 19 -16 35 -19 35 -4 0 -12 16 -20 35 -8
19 -17 35 -21 35 -4 0 -9 8 -12 18 -6 17 -37 72 -47 82 -3 3 -23 32 -45 65
-38 58 -103 143 -135 176 -24 26 -54 64 -55 69 0 3 -21 25 -47 49 -27 25 -48
52 -49 60 0 11 -2 12 -6 4 -3 -8 -18 3 -39 28 -19 22 -34 37 -34 33 0 -4 -8 1
-18 12 -10 10 -46 42 -80 69 -34 28 -62 53 -62 58 0 4 -7 7 -15 7 -8 0 -15 5
-15 11 0 5 -4 8 -9 4 -6 -3 -13 0 -18 7 -4 7 -21 21 -38 30 -16 10 -29 22 -28
28 2 5 0 9 -5 8 -13 -4 -52 13 -52 23 0 5 -7 9 -15 9 -8 0 -23 8 -33 18 -10 9
-25 18 -33 20 -7 2 -17 8 -20 14 -3 5 -10 10 -15 11 -5 1 -8 6 -6 10 1 5 -2 6
-8 2 -5 -3 -20 0 -32 7 -13 7 -26 11 -30 10 -3 -1 -12 5 -18 13 -7 8 -21 15
-31 15 -11 0 -19 4 -19 10 0 5 -3 9 -7 8 -5 -1 -24 5 -43 14 -19 8 -52 20 -72
27 -21 7 -38 17 -38 23 0 6 -2 9 -5 6 -3 -3 -41 6 -83 19 -102 33 -219 64
-262 70 -19 3 -37 9 -38 14 -2 5 -8 7 -13 3 -5 -3 -14 -2 -20 2 -7 4 -28 8
-48 10 -20 1 -70 6 -111 10 -41 4 -94 7 -117 8 -24 0 -43 4 -43 9 0 4 -9 3
-20 -3 -11 -6 -20 -7 -20 -3 0 7 -128 12 -135 5z m111 -645 c27 3 34 1 28 -9
-6 -10 -4 -10 7 -2 18 14 111 8 121 -9 5 -7 8 -8 8 -1 0 11 60 14 60 3 0 -3
15 -6 34 -7 40 -2 59 -5 66 -12 3 -3 34 -12 70 -19 36 -7 67 -16 70 -20 3 -5
13 -7 23 -5 9 1 17 -2 17 -7 0 -5 3 -8 8 -8 16 3 72 -14 72 -22 0 -5 3 -8 8
-8 20 3 32 -2 26 -13 -4 -7 -3 -8 5 -4 7 4 29 0 49 -9 87 -39 162 -80 162 -87
0 -4 3 -7 8 -6 4 2 31 -13 61 -32 30 -19 65 -41 78 -48 13 -8 27 -20 30 -28 3
-8 9 -14 14 -14 11 0 42 -24 84 -65 17 -16 46 -43 65 -59 19 -16 33 -30 30
-31 -3 0 14 -19 37 -41 42 -39 95 -101 123 -144 8 -13 25 -35 38 -50 12 -15
22 -31 22 -34 0 -3 16 -29 35 -56 19 -28 33 -50 29 -50 -3 0 3 -12 14 -27 21
-32 48 -94 44 -105 -1 -5 2 -8 7 -8 5 0 13 -10 17 -22 3 -13 15 -41 24 -63 19
-41 49 -137 54 -167 1 -10 5 -21 9 -24 4 -4 7 -20 7 -36 0 -21 -4 -27 -12 -22
-8 4 -10 3 -5 -2 5 -5 13 -9 19 -9 11 0 14 -11 21 -75 2 -20 7 -41 11 -48 4
-7 5 -16 2 -20 -3 -4 -1 -25 4 -45 5 -25 5 -35 -3 -30 -6 4 -7 1 -1 -8 4 -8 9
-40 10 -71 0 -32 4 -61 7 -65 4 -3 -1 -15 -10 -26 -10 -11 -12 -17 -5 -13 10
6 11 -6 7 -59 -8 -88 -12 -104 -27 -123 -11 -13 -11 -14 1 -7 11 6 13 4 6 -11
-4 -10 -12 -38 -18 -61 -6 -24 -14 -43 -19 -43 -4 0 -8 -9 -8 -19 0 -11 -5
-23 -10 -26 -6 -4 -8 -11 -5 -16 4 -5 -1 -12 -9 -15 -9 -3 -14 -10 -11 -14 8
-13 -46 -101 -57 -94 -6 4 -8 2 -4 -4 9 -15 -36 -82 -52 -77 -7 3 -11 1 -8 -4
5 -8 -35 -62 -62 -85 -7 -6 -24 -21 -37 -33 -13 -13 -27 -23 -31 -23 -4 0 -14
-8 -23 -18 -9 -10 -41 -34 -71 -54 -40 -26 -58 -33 -68 -26 -9 8 -11 7 -6 -7
5 -13 4 -16 -4 -11 -7 4 -12 2 -12 -5 0 -8 -4 -8 -16 1 -12 11 -15 11 -12 0 2
-8 -10 -18 -27 -24 -16 -6 -32 -13 -35 -17 -3 -3 -15 -5 -27 -4 -12 1 -20 -2
-17 -7 3 -4 -4 -9 -15 -9 -21 -2 -37 -5 -46 -9 -3 -1 -9 -4 -15 -5 -5 -1 -11
-3 -12 -5 -18 -14 -500 -22 -491 -7 4 6 1 7 -8 1 -20 -13 -160 -14 -152 -1 4
6 1 7 -8 1 -21 -14 -160 -14 -152 0 5 8 3 8 -8 0 -22 -17 -315 -13 -311 4 1 8
-2 11 -8 7 -6 -3 -8 -10 -5 -15 8 -12 -37 -9 -54 4 -11 8 -13 8 -8 0 4 -7 -78
-10 -274 -10 -155 1 -283 -2 -286 -7 -2 -4 -8 -5 -12 -3 -4 3 -46 8 -92 11
-46 4 -102 11 -124 17 -46 13 -60 17 -77 21 -29 7 -66 21 -105 38 -24 11 -54
24 -68 29 -14 5 -25 14 -25 20 0 6 -4 8 -10 5 -5 -3 -10 -1 -10 5 0 6 -5 8
-10 5 -6 -3 -13 1 -16 9 -3 9 -15 16 -26 16 -14 0 -18 5 -14 16 3 8 2 12 -4 9
-12 -8 -71 35 -64 47 3 5 2 7 -3 6 -13 -5 -83 64 -76 75 3 6 1 7 -4 4 -6 -4
-19 5 -29 19 -11 15 -24 31 -29 38 -19 20 -60 91 -57 99 1 4 -3 7 -9 7 -9 0
-34 48 -41 81 -2 7 -9 20 -16 28 -7 7 -11 20 -8 27 3 8 2 14 -3 14 -10 0 -35
89 -47 170 -11 66 -11 95 0 109 8 11 8 13 0 8 -19 -11 -13 191 6 203 10 7 11
10 2 10 -9 0 -11 11 -8 38 3 20 5 38 7 40 2 3 6 34 8 63 0 11 6 17 11 14 7 -4
9 2 4 19 -3 14 0 42 7 63 7 21 14 43 15 48 1 6 4 21 7 35 8 34 42 128 50 137
4 3 7 15 7 25 0 10 5 18 12 18 6 0 8 3 5 6 -4 4 0 19 7 33 7 14 19 38 26 53 7
15 17 25 21 22 4 -2 11 1 15 7 4 8 3 9 -4 5 -18 -11 -15 19 3 34 8 7 13 16 10
20 -3 5 -1 10 3 12 9 3 46 63 78 125 9 18 20 30 25 27 5 -3 9 2 9 10 0 9 7 16
15 16 9 0 12 6 9 15 -4 8 -2 15 4 15 5 0 22 18 37 40 15 22 32 37 36 34 5 -3
8 -2 7 3 -5 14 51 75 62 68 6 -4 9 -1 8 7 -2 7 2 12 9 11 7 -2 10 4 7 12 -4 8
-2 15 4 15 5 0 21 12 35 26 14 14 30 23 35 20 6 -3 9 0 8 7 -1 13 130 124 164
140 8 4 24 13 34 19 77 50 141 86 166 93 3 0 39 17 80 37 42 20 87 39 100 42
14 2 42 12 63 20 27 12 37 13 37 4 0 -6 7 -3 15 8 8 10 15 15 15 11 0 -4 8 -3
18 2 13 7 23 6 32 -2 7 -7 10 -7 7 -1 -9 16 58 35 74 20 9 -8 10 -8 5 2 -7 12
-2 13 72 16 9 1 16 -5 14 -12 -1 -8 2 -11 7 -7 6 3 8 11 5 18 -3 8 4 13 18 14
144 7 211 13 216 18 4 3 8 2 10 -3 1 -5 19 -7 38 -5z"/>
<path d="M3795 5800 c-3 -5 -1 -10 4 -10 6 0 11 5 11 10 0 6 -2 10 -4 10 -3 0
-8 -4 -11 -10z"/>
<path d="M3390 5720 c0 -5 5 -10 11 -10 5 0 7 5 4 10 -3 6 -8 10 -11 10 -2 0
-4 -4 -4 -10z"/>
<path d="M3815 5711 c-3 -5 -2 -12 3 -15 5 -3 9 1 9 9 0 17 -3 19 -12 6z"/>
<path d="M3663 5684 c9 -16 -38 -24 -54 -10 -9 8 -10 8 -4 -2 5 -10 2 -13 -11
-11 -11 1 -27 -1 -37 -6 -10 -4 -21 -5 -24 -2 -3 4 -13 2 -23 -3 -9 -5 -28
-11 -41 -14 -58 -12 -74 -16 -108 -28 -20 -7 -39 -13 -43 -14 -5 -1 -10 -3
-13 -4 -3 -1 -8 -3 -12 -5 -5 -1 -21 -7 -36 -13 -16 -7 -33 -9 -39 -6 -7 4 -8
2 -4 -4 7 -11 -7 -16 -41 -15 -7 1 -11 -3 -8 -7 7 -11 -32 -23 -45 -15 -6 4
-9 1 -8 -7 2 -8 -6 -13 -18 -12 -14 0 -20 -4 -17 -13 5 -11 -2 -15 -23 -12 -4
0 -10 -3 -13 -8 -3 -4 -25 -20 -47 -35 -32 -21 -44 -24 -54 -15 -10 9 -11 9
-6 -1 8 -13 -15 -42 -33 -42 -6 0 -11 -4 -11 -8 0 -4 -12 -15 -27 -25 -25 -15
-72 -56 -155 -134 -16 -15 -28 -30 -28 -35 0 -4 -8 -8 -17 -8 -9 0 -14 -3 -10
-6 7 -7 -52 -70 -64 -67 -4 2 -6 -4 -3 -12 4 -8 2 -15 -3 -15 -5 0 -17 -13
-26 -30 -10 -16 -23 -35 -30 -42 -7 -8 -20 -27 -29 -43 -10 -17 -22 -29 -27
-28 -5 1 -7 -6 -4 -16 2 -9 -3 -23 -11 -30 -9 -8 -16 -20 -16 -28 0 -9 -6 -13
-14 -10 -9 4 -12 0 -9 -13 3 -10 0 -21 -6 -24 -6 -4 -11 -16 -11 -27 0 -11 -4
-18 -9 -15 -5 3 -12 -1 -15 -10 -4 -10 -2 -13 7 -8 9 6 9 4 1 -7 -10 -13 -63
-140 -69 -164 -9 -39 -18 -72 -22 -85 -4 -8 -7 -22 -7 -30 -1 -8 -7 -14 -15
-12 -12 3 -12 1 0 -14 10 -12 11 -18 3 -21 -7 -2 -9 -13 -6 -25 3 -12 1 -19
-4 -16 -5 4 -8 -14 -7 -38 1 -24 -1 -44 -5 -44 -4 0 -8 -28 -9 -63 -3 -74 -3
-83 -2 -99 0 -7 -2 -23 -5 -35 -2 -13 -1 -25 5 -28 5 -4 5 -14 -1 -26 -7 -11
-7 -19 -1 -19 5 0 8 -8 7 -17 -2 -9 3 -47 11 -83 8 -36 15 -73 16 -82 1 -10 5
-18 9 -18 4 0 8 -6 8 -14 0 -20 81 -176 91 -176 5 0 9 -7 9 -15 0 -9 7 -18 16
-22 9 -3 13 -12 9 -21 -3 -9 -3 -13 1 -10 3 4 32 -19 63 -51 31 -31 64 -60 74
-64 9 -3 17 -11 17 -17 0 -6 5 -8 10 -5 6 3 10 1 10 -4 0 -6 7 -11 15 -11 8 0
15 -4 15 -9 0 -5 9 -11 21 -14 12 -3 18 -10 15 -16 -4 -5 -1 -13 5 -17 8 -4 9
-3 5 4 -10 16 0 15 32 -2 40 -22 152 -57 162 -51 4 3 10 1 12 -4 1 -6 27 -11
55 -13 29 -2 53 -6 53 -10 0 -4 10 -4 23 1 12 5 31 5 42 1 11 -4 25 -3 32 2 7
5 14 5 18 -2 4 -7 12 -7 26 0 10 6 19 7 19 2 0 -10 45 -10 55 0 4 4 18 3 31
-2 16 -6 24 -6 24 1 0 6 6 7 13 2 18 -11 37 -12 37 -2 0 17 -5 24 -20 24 -8 0
-15 8 -15 17 0 9 -4 20 -9 25 -5 4 -6 3 -2 -4 4 -7 2 -13 -3 -13 -14 0 -44 25
-95 79 -22 24 -47 50 -53 57 -16 16 -17 38 -1 28 7 -4 8 -3 4 4 -4 6 -13 9
-20 6 -13 -5 -76 83 -76 106 0 6 -4 10 -9 10 -9 0 -61 124 -87 206 -9 32 -10
45 -1 54 9 10 9 11 0 6 -7 -4 -13 -4 -14 1 0 4 -3 26 -5 47 -3 25 0 43 8 49
10 7 9 8 -2 4 -13 -4 -15 10 -16 89 -1 51 1 92 5 90 3 -2 6 19 5 47 -1 34 5
59 15 71 12 14 12 17 2 11 -11 -6 -13 -4 -7 11 5 10 12 35 18 54 9 33 23 69
51 130 6 14 18 33 26 43 8 9 11 17 7 17 -3 0 17 34 45 75 29 41 58 75 65 75 8
0 13 3 13 8 -3 16 1 35 6 30 3 -3 28 17 56 44 27 27 54 46 60 42 5 -3 8 -1 7
4 -4 15 81 74 94 66 6 -4 8 -3 5 3 -12 19 185 104 278 118 32 6 79 15 99 21
10 4 16 2 13 -3 -3 -5 3 -9 13 -9 10 0 16 4 14 8 -5 7 68 14 91 8 6 -1 39 -4
75 -6 36 -2 72 -7 80 -11 8 -3 26 -8 40 -10 13 -2 27 -7 30 -11 3 -4 18 -8 35
-9 16 -1 31 -7 33 -13 2 -5 8 -8 13 -4 5 3 21 -2 36 -10 16 -8 42 -20 60 -27
17 -7 29 -17 27 -21 -3 -4 4 -8 16 -8 13 0 19 -4 14 -12 -4 -7 -3 -8 4 -4 10
6 94 -47 130 -81 7 -7 18 -13 23 -13 5 0 9 -5 9 -10 0 -6 23 -32 50 -59 28
-27 50 -56 50 -66 0 -9 4 -14 9 -11 4 3 22 -16 38 -42 29 -46 36 -70 20 -64
-5 1 -6 -2 -2 -7 3 -6 12 -8 19 -5 20 8 31 -33 14 -54 -12 -15 -11 -16 5 -3
15 12 17 11 17 -3 0 -9 4 -16 9 -16 5 0 12 -15 16 -32 7 -31 9 -37 15 -55 1
-5 2 -11 1 -15 0 -5 4 -8 11 -8 6 0 9 -3 6 -6 -4 -3 -2 -20 3 -37 30 -103 35
-308 6 -290 -6 4 -7 1 -2 -6 4 -7 -2 -22 -16 -37 -17 -18 -25 -21 -36 -12 -10
8 -12 7 -8 -5 10 -25 -14 -31 -158 -34 -107 -2 -136 0 -131 10 5 8 2 7 -9 -2
-14 -11 -20 -11 -34 0 -9 8 -14 9 -10 3 4 -8 -78 -11 -291 -10 -267 1 -301 3
-325 19 -15 9 -27 24 -27 33 0 8 -4 13 -9 9 -26 -15 -47 95 -29 149 9 27 68
97 68 81 0 -3 10 1 23 10 51 33 154 -1 196 -65 11 -17 12 -22 2 -16 -9 6 -7 0
4 -17 9 -15 13 -32 9 -38 -5 -9 -1 -10 14 -7 12 4 24 3 26 -1 6 -9 68 -7 84 3
7 4 12 3 12 -3 0 -7 8 -7 23 -2 13 5 29 6 36 1 12 -7 70 -4 98 5 7 2 15 0 18
-5 4 -7 13 -6 26 0 12 7 19 7 19 1 0 -5 10 -8 23 -5 25 6 119 6 125 -1 2 -2
14 0 26 4 11 5 30 5 41 1 11 -4 28 -3 39 2 13 7 16 7 12 -1 -4 -6 -2 -11 4
-11 15 0 30 43 18 57 -6 7 -5 14 2 18 8 5 8 11 -1 21 -6 8 -9 23 -6 34 3 11 1
23 -4 26 -6 3 -8 11 -6 17 2 6 -11 50 -28 98 -24 64 -29 91 -21 99 8 8 7 10
-5 5 -11 -4 -23 9 -44 47 -16 29 -37 61 -48 70 -11 10 -16 22 -11 30 4 7 4 10
0 6 -4 -3 -34 20 -67 53 -32 32 -63 59 -69 59 -5 0 -10 4 -10 9 0 5 -8 12 -18
15 -10 4 -29 16 -41 27 -12 12 -28 22 -36 23 -7 1 -19 7 -26 12 -20 15 -99 45
-134 51 -16 3 -32 8 -35 12 -3 4 -12 6 -20 6 -8 -1 -24 6 -34 14 -11 9 -16 11
-12 3 5 -9 -1 -12 -24 -10 -17 1 -34 6 -37 11 -3 5 -9 3 -14 -4 -5 -8 -9 -9
-9 -4 0 12 -59 13 -78 1 -7 -4 -12 -2 -12 4 0 6 -5 8 -12 3 -7 -4 -26 -8 -42
-9 -16 -2 -41 -6 -55 -10 -14 -4 -33 -8 -41 -9 -75 -11 -243 -98 -315 -163
-23 -21 -36 -27 -43 -20 -8 8 -9 5 -5 -11 5 -19 -3 -26 -28 -23 -4 1 -6 -6 -5
-16 0 -9 -5 -16 -11 -15 -7 2 -12 0 -11 -5 4 -13 -59 -92 -67 -84 -5 4 -5 2
-1 -5 7 -12 -18 -61 -39 -75 -5 -4 -7 -8 -2 -8 4 0 1 -13 -7 -29 -9 -16 -12
-31 -9 -34 3 -4 -2 -9 -11 -13 -9 -3 -14 -10 -11 -15 9 -14 -6 -59 -18 -52 -5
3 -7 1 -4 -4 10 -15 -4 -104 -14 -97 -5 3 -5 -6 1 -20 6 -17 6 -27 -1 -32 -8
-4 -7 -9 2 -15 11 -7 11 -9 1 -9 -7 0 -11 -4 -7 -10 3 -5 8 -42 10 -82 6 -89
9 -110 17 -123 3 -6 8 -23 9 -40 2 -16 7 -32 10 -35 4 -3 9 -14 11 -25 1 -11
5 -22 8 -25 3 -3 16 -29 29 -57 14 -29 28 -53 33 -53 4 0 8 -6 8 -13 0 -7 9
-23 20 -35 11 -12 20 -23 20 -26 0 -3 18 -23 39 -45 21 -22 36 -42 33 -45 -3
-3 2 -6 10 -6 9 0 18 -4 20 -8 4 -10 112 -92 122 -92 4 0 18 -8 33 -17 14 -10
33 -18 41 -19 8 -2 19 -9 23 -16 5 -7 9 -10 9 -5 0 4 14 1 30 -8 17 -9 30 -13
30 -11 0 3 15 0 33 -5 17 -6 48 -13 67 -16 19 -3 40 -9 47 -15 7 -5 13 -5 17
0 6 9 53 8 63 -2 3 -2 16 -1 30 5 13 5 22 5 19 0 -8 -12 67 -8 76 4 5 6 8 6 8
-1 0 -10 24 -11 67 -3 4 1 10 0 13 -1 18 -7 50 -5 50 3 0 6 5 6 13 0 6 -6 21
-9 32 -7 19 3 50 5 88 4 23 -1 142 -1 165 0 9 0 28 0 42 -1 45 -1 85 -1 95 1
6 1 48 1 95 1 47 0 110 4 140 10 30 6 64 12 75 13 26 5 115 35 140 49 11 6 23
10 28 9 4 -1 7 2 7 8 0 5 6 10 12 10 43 0 227 165 282 252 16 26 34 44 39 41
6 -3 7 -1 4 4 -8 12 17 78 33 88 6 4 10 12 9 18 -1 7 3 25 9 40 7 16 12 37 12
47 0 10 4 21 10 25 5 3 7 12 3 20 -3 8 -1 15 3 15 5 0 10 26 12 58 3 75 3 69
0 135 -2 31 1 57 5 57 5 0 5 6 0 13 -7 11 -10 31 -15 105 -1 17 -4 32 -7 32
-4 0 -6 10 -7 23 0 12 -4 38 -8 57 -4 19 -9 48 -11 65 -2 16 -8 31 -14 33 -6
2 -9 7 -6 12 3 5 -4 31 -14 58 -11 27 -17 53 -14 56 4 3 1 6 -5 6 -6 0 -9 7
-6 15 4 8 1 15 -5 15 -6 0 -10 3 -9 8 0 4 -7 25 -16 47 -10 22 -23 52 -29 68
-7 15 -15 27 -19 27 -5 0 -8 7 -8 16 0 8 -7 22 -16 31 -8 9 -12 23 -9 31 3 9
3 13 -1 9 -9 -9 -45 43 -38 55 3 4 0 8 -6 8 -6 0 -8 5 -4 12 4 7 3 8 -4 4 -13
-8 -35 28 -24 39 4 3 3 5 -3 3 -5 -2 -11 1 -12 5 -1 5 -12 17 -24 28 -12 10
-19 19 -16 19 4 0 -7 13 -23 28 -16 16 -27 32 -23 35 3 4 1 7 -6 7 -14 0 -77
70 -73 83 1 4 -1 6 -6 3 -4 -2 -30 16 -57 41 -28 24 -60 52 -73 60 -18 13 -20
18 -10 25 9 7 7 8 -6 4 -11 -4 -22 -3 -25 1 -9 12 -62 48 -99 67 -18 9 -31 20
-28 24 3 4 -5 9 -16 9 -12 1 -24 6 -27 12 -3 5 -25 17 -49 26 -31 13 -41 22
-37 33 4 12 3 13 -10 2 -12 -10 -18 -10 -30 0 -8 7 -15 9 -15 5 0 -3 -12 3
-26 14 -15 11 -30 18 -35 15 -5 -3 -9 -1 -9 5 0 6 -6 8 -14 5 -8 -3 -17 0 -21
5 -3 6 -11 9 -16 6 -5 -4 -9 -1 -9 6 0 6 -8 9 -20 6 -11 -3 -26 0 -33 7 -6 6
-21 11 -32 11 -11 0 -27 3 -36 7 -9 4 -28 9 -43 12 -91 17 -146 25 -181 28
-22 1 -43 7 -47 13 -5 6 -8 5 -8 -3 0 -10 -5 -10 -20 -2 -14 8 -20 8 -20 0 0
-6 -5 -8 -12 -3 -16 9 -31 10 -85 2 -24 -3 -43 -3 -43 0 0 6 -51 6 -57 1 -9
-7 -30 -5 -42 4 -11 8 -13 8 -8 0z"/>
<path d="M2996 5598 c3 -5 10 -6 15 -3 13 9 11 12 -6 12 -8 0 -12 -4 -9 -9z"/>
<path d="M3035 5581 c-3 -5 -2 -12 3 -15 5 -3 9 1 9 9 0 17 -3 19 -12 6z"/>
<path d="M2900 5520 c-9 -6 -10 -10 -3 -10 6 0 15 5 18 10 8 12 4 12 -15 0z"/>
<path d="M2950 5516 c7 -7 13 -7 20 0 6 6 3 10 -10 10 -13 0 -16 -4 -10 -10z"/>
<path d="M3007 5519 c7 -7 15 -10 18 -7 3 3 -2 9 -12 12 -14 6 -15 5 -6 -5z"/>
<path d="M4756 5522 c-3 -5 1 -9 9 -9 8 0 12 4 9 9 -3 4 -7 8 -9 8 -2 0 -6 -4
-9 -8z"/>
<path d="M4635 5511 c-3 -5 -2 -12 3 -15 5 -3 9 1 9 9 0 17 -3 19 -12 6z"/>
<path d="M2820 5480 c-9 -6 -10 -10 -3 -10 6 0 15 5 18 10 8 12 4 12 -15 0z"/>
<path d="M4766 5482 c-3 -5 1 -9 9 -9 8 0 12 4 9 9 -3 4 -7 8 -9 8 -2 0 -6 -4
-9 -8z"/>
<path d="M2766 5398 c3 -5 10 -6 15 -3 13 9 11 12 -6 12 -8 0 -12 -4 -9 -9z"/>
<path d="M2686 5362 c-3 -5 1 -9 9 -9 8 0 12 4 9 9 -3 4 -7 8 -9 8 -2 0 -6 -4
-9 -8z"/>
<path d="M2740 5360 c-9 -6 -10 -10 -3 -10 6 0 15 5 18 10 8 12 4 12 -15 0z"/>
<path d="M4875 5360 c3 -5 8 -10 11 -10 2 0 4 5 4 10 0 6 -5 10 -11 10 -5 0
-7 -4 -4 -10z"/>
<path d="M4925 5360 c-3 -6 1 -7 9 -4 18 7 21 14 7 14 -6 0 -13 -4 -16 -10z"/>
<path d="M2754 5302 c4 -3 14 -7 22 -8 9 -1 13 0 10 4 -4 3 -14 7 -22 8 -9 1
-13 0 -10 -4z"/>
<path d="M2690 5279 c0 -5 5 -7 10 -4 6 3 10 8 10 11 0 2 -4 4 -10 4 -5 0 -10
-5 -10 -11z"/>
<path d="M5076 5253 c-6 -14 -5 -15 5 -6 7 7 10 15 7 18 -3 3 -9 -2 -12 -12z"/>
<path d="M2575 5240 c-3 -5 -1 -10 4 -10 6 0 11 5 11 10 0 6 -2 10 -4 10 -3 0
-8 -4 -11 -10z"/>
<path d="M5075 5151 c-3 -5 -2 -12 3 -15 5 -3 9 1 9 9 0 17 -3 19 -12 6z"/>
<path d="M2473 5125 c0 -8 4 -12 9 -9 5 3 6 10 3 15 -9 13 -12 11 -12 -6z"/>
<path d="M5115 5121 c-3 -5 -2 -12 3 -15 5 -3 9 1 9 9 0 17 -3 19 -12 6z"/>
<path d="M3810 5020 c0 -5 5 -10 11 -10 5 0 7 5 4 10 -3 6 -8 10 -11 10 -2 0
-4 -4 -4 -10z"/>
<path d="M3595 4989 c-4 -6 -5 -12 -2 -15 2 -3 7 2 10 11 7 17 1 20 -8 4z"/>
<path d="M2415 4960 c3 -5 8 -10 11 -10 2 0 4 5 4 10 0 6 -5 10 -11 10 -5 0
-7 -4 -4 -10z"/>
<path d="M3726 4958 c3 -5 10 -6 15 -3 13 9 11 12 -6 12 -8 0 -12 -4 -9 -9z"/>
<path d="M5225 4960 c-3 -6 1 -7 9 -4 18 7 21 14 7 14 -6 0 -13 -4 -16 -10z"/>
<path d="M5270 4940 c0 -5 5 -10 11 -10 5 0 7 5 4 10 -3 6 -8 10 -11 10 -2 0
-4 -4 -4 -10z"/>
<path d="M5266 4882 c-3 -5 1 -9 9 -9 8 0 12 4 9 9 -3 4 -7 8 -9 8 -2 0 -6 -4
-9 -8z"/>
<path d="M2356 4853 c-6 -14 -5 -15 5 -6 7 7 10 15 7 18 -3 3 -9 -2 -12 -12z"/>
<path d="M4316 4833 c-6 -14 -5 -15 5 -6 7 7 10 15 7 18 -3 3 -9 -2 -12 -12z"/>
<path d="M4236 4827 c3 -10 9 -15 12 -12 3 3 0 11 -7 18 -10 9 -11 8 -5 -6z"/>
<path d="M3256 4802 c-3 -5 1 -9 9 -9 8 0 12 4 9 9 -3 4 -7 8 -9 8 -2 0 -6 -4
-9 -8z"/>
<path d="M2319 4788 c-5 -18 -6 -38 -1 -34 7 8 12 36 6 36 -2 0 -4 -1 -5 -2z"/>
<path d="M3396 4773 c-6 -14 -5 -15 5 -6 7 7 10 15 7 18 -3 3 -9 -2 -12 -12z"/>
<path d="M4275 4781 c-3 -5 -2 -12 3 -15 5 -3 9 1 9 9 0 17 -3 19 -12 6z"/>
<path d="M3327 4759 c7 -7 15 -10 18 -7 3 3 -2 9 -12 12 -14 6 -15 5 -6 -5z"/>
<path d="M5393 4745 c0 -8 4 -12 9 -9 5 3 6 10 3 15 -9 13 -12 11 -12 -6z"/>
<path d="M5310 4736 c0 -2 8 -10 18 -17 15 -13 16 -12 3 4 -13 16 -21 21 -21
13z"/>
<path d="M3156 4693 c-6 -14 -5 -15 5 -6 7 7 10 15 7 18 -3 3 -9 -2 -12 -12z"/>
<path d="M2235 4649 c-4 -6 -5 -12 -2 -15 2 -3 7 2 10 11 7 17 1 20 -8 4z"/>
<path d="M4450 4641 c0 -6 4 -13 10 -16 6 -3 7 1 4 9 -7 18 -14 21 -14 7z"/>
<path d="M5460 4646 c0 -2 8 -10 18 -17 15 -13 16 -12 3 4 -13 16 -21 21 -21
13z"/>
<path d="M5370 4606 c0 -2 7 -7 16 -10 8 -3 12 -2 9 4 -6 10 -25 14 -25 6z"/>
<path d="M4596 4587 c3 -10 9 -15 12 -12 3 3 0 11 -7 18 -10 9 -11 8 -5 -6z"/>
<path d="M2195 4540 c-3 -5 -1 -10 4 -10 6 0 11 5 11 10 0 6 -2 10 -4 10 -3 0
-8 -4 -11 -10z"/>
<path d="M2273 4535 c0 -8 4 -12 9 -9 5 3 6 10 3 15 -9 13 -12 11 -12 -6z"/>
<path d="M3033 4515 c0 -8 4 -12 9 -9 5 3 6 10 3 15 -9 13 -12 11 -12 -6z"/>
<path d="M4525 4520 c-3 -6 1 -7 9 -4 18 7 21 14 7 14 -6 0 -13 -4 -16 -10z"/>
<path d="M5515 4509 c-4 -6 -5 -12 -2 -15 2 -3 7 2 10 11 7 17 1 20 -8 4z"/>
<path d="M4636 4487 c3 -10 9 -15 12 -12 3 3 0 11 -7 18 -10 9 -11 8 -5 -6z"/>
<path d="M3030 4461 c0 -6 4 -13 10 -16 6 -3 7 1 4 9 -7 18 -14 21 -14 7z"/>
<path d="M2980 4440 c-9 -6 -10 -10 -3 -10 6 0 15 5 18 10 8 12 4 12 -15 0z"/>
<path d="M5487 4439 c7 -7 15 -10 18 -7 3 3 -2 9 -12 12 -14 6 -15 5 -6 -5z"/>
<path d="M2949 4363 c-13 -16 -12 -17 4 -4 16 13 21 21 13 21 -2 0 -10 -8 -17
-17z"/>
<path d="M2176 4362 c-3 -5 1 -9 9 -9 8 0 12 4 9 9 -3 4 -7 8 -9 8 -2 0 -6 -4
-9 -8z"/>
<path d="M2993 4325 c0 -8 4 -12 9 -9 5 3 6 10 3 15 -9 13 -12 11 -12 -6z"/>
<path d="M2940 4320 c-9 -6 -10 -10 -3 -10 6 0 15 5 18 10 8 12 4 12 -15 0z"/>
<path d="M4756 4233 c-6 -14 -5 -15 5 -6 7 7 10 15 7 18 -3 3 -9 -2 -12 -12z"/>
<path d="M5546 4205 c-11 -8 -15 -15 -9 -15 6 0 16 7 23 15 16 19 11 19 -14 0z"/>
<path d="M2975 4200 c3 -5 8 -10 11 -10 2 0 4 5 4 10 0 6 -5 10 -11 10 -5 0
-7 -4 -4 -10z"/>
<path d="M3875 4201 c-3 -5 -2 -12 3 -15 5 -3 9 1 9 9 0 17 -3 19 -12 6z"/>
<path d="M5487 4199 c7 -7 15 -10 18 -7 3 3 -2 9 -12 12 -14 6 -15 5 -6 -5z"/>
<path d="M2919 4153 c-13 -17 -13 -17 6 -3 11 8 22 16 24 17 2 2 0 3 -6 3 -6
0 -17 -8 -24 -17z"/>
<path d="M2973 4145 c0 -8 4 -12 9 -9 5 3 6 10 3 15 -9 13 -12 11 -12 -6z"/>
<path d="M3715 4131 c-3 -5 -2 -12 3 -15 5 -3 9 1 9 9 0 17 -3 19 -12 6z"/>
<path d="M2930 4120 c0 -5 5 -10 11 -10 5 0 7 5 4 10 -3 6 -8 10 -11 10 -2 0
-4 -4 -4 -10z"/>
<path d="M5450 4119 c0 -5 5 -7 10 -4 6 3 10 8 10 11 0 2 -4 4 -10 4 -5 0 -10
-5 -10 -11z"/>
<path d="M3953 4105 c0 -8 4 -12 9 -9 5 3 6 10 3 15 -9 13 -12 11 -12 -6z"/>
<path d="M3855 4080 c3 -5 8 -10 11 -10 2 0 4 5 4 10 0 6 -5 10 -11 10 -5 0
-7 -4 -4 -10z"/>
<path d="M2933 4049 c-2 -23 3 -25 10 -4 4 8 3 16 -1 19 -4 3 -9 -4 -9 -15z"/>
<path d="M4016 4062 c-2 -4 -1 -14 4 -22 7 -11 9 -9 7 8 -1 24 -3 26 -11 14z"/>
<path d="M4253 4055 c0 -8 4 -12 9 -9 5 3 6 10 3 15 -9 13 -12 11 -12 -6z"/>
<path d="M4405 4060 c-3 -6 1 -7 9 -4 18 7 21 14 7 14 -6 0 -13 -4 -16 -10z"/>
<path d="M4750 4060 c0 -5 5 -10 11 -10 5 0 7 5 4 10 -3 6 -8 10 -11 10 -2 0
-4 -4 -4 -10z"/>
<path d="M3966 4042 c-3 -5 1 -9 9 -9 8 0 12 4 9 9 -3 4 -7 8 -9 8 -2 0 -6 -4
-9 -8z"/>
<path d="M4073 4025 c0 -8 4 -12 9 -9 5 3 6 10 3 15 -9 13 -12 11 -12 -6z"/>
<path d="M4313 4025 c0 -8 4 -12 9 -9 5 3 6 10 3 15 -9 13 -12 11 -12 -6z"/>
<path d="M4593 4025 c0 -8 4 -12 9 -9 5 3 6 10 3 15 -9 13 -12 11 -12 -6z"/>
<path d="M3755 4020 c3 -5 8 -10 11 -10 2 0 4 5 4 10 0 6 -5 10 -11 10 -5 0
-7 -4 -4 -10z"/>
<path d="M2965 4000 c-3 -6 1 -7 9 -4 18 7 21 14 7 14 -6 0 -13 -4 -16 -10z"/>
<path d="M4395 4000 c-3 -5 -1 -10 4 -10 6 0 11 5 11 10 0 6 -2 10 -4 10 -3 0
-8 -4 -11 -10z"/>
<path d="M3936 3982 c-2 -4 -1 -14 4 -22 7 -11 9 -9 7 8 -1 24 -3 26 -11 14z"/>
<path d="M4295 3961 c-3 -5 -2 -12 3 -15 5 -3 9 1 9 9 0 17 -3 19 -12 6z"/>
<path d="M5550 3965 c0 -5 5 -17 10 -25 5 -8 10 -10 10 -5 0 6 -5 17 -10 25
-5 8 -10 11 -10 5z"/>
<path d="M2915 3940 c3 -5 8 -10 11 -10 2 0 4 5 4 10 0 6 -5 10 -11 10 -5 0
-7 -4 -4 -10z"/>
<path d="M2153 3915 c0 -8 4 -12 9 -9 5 3 6 10 3 15 -9 13 -12 11 -12 -6z"/>
<path d="M2166 3842 c-3 -5 1 -9 9 -9 8 0 12 4 9 9 -3 4 -7 8 -9 8 -2 0 -6 -4
-9 -8z"/>
<path d="M5524 3842 c4 -3 14 -7 22 -8 9 -1 13 0 10 4 -4 3 -14 7 -22 8 -9 1
-13 0 -10 -4z"/>
<path d="M3006 3798 c3 -5 10 -6 15 -3 13 9 11 12 -6 12 -8 0 -12 -4 -9 -9z"/>
<path d="M5475 3720 c-3 -5 -1 -10 4 -10 6 0 11 5 11 10 0 6 -2 10 -4 10 -3 0
-8 -4 -11 -10z"/>
<path d="M2236 3673 c-6 -14 -5 -15 5 -6 7 7 10 15 7 18 -3 3 -9 -2 -12 -12z"/>
<path d="M3055 3680 c3 -5 8 -10 11 -10 2 0 4 5 4 10 0 6 -5 10 -11 10 -5 0
-7 -4 -4 -10z"/>
<path d="M3075 3629 c-4 -6 -5 -12 -2 -15 2 -3 7 2 10 11 7 17 1 20 -8 4z"/>
<path d="M3190 3541 c0 -6 4 -13 10 -16 6 -3 7 1 4 9 -7 18 -14 21 -14 7z"/>
<path d="M3190 3479 c0 -5 5 -7 10 -4 6 3 10 8 10 11 0 2 -4 4 -10 4 -5 0 -10
-5 -10 -11z"/>
<path d="M3215 3440 c3 -5 8 -10 11 -10 2 0 4 5 4 10 0 6 -5 10 -11 10 -5 0
-7 -4 -4 -10z"/>
<path d="M3215 3400 c-3 -5 -1 -10 4 -10 6 0 11 5 11 10 0 6 -2 10 -4 10 -3 0
-8 -4 -11 -10z"/>
<path d="M3295 3400 c-3 -5 -1 -10 4 -10 6 0 11 5 11 10 0 6 -2 10 -4 10 -3 0
-8 -4 -11 -10z"/>
<path d="M5191 3393 c7 -12 15 -20 18 -17 3 2 -3 12 -13 22 -17 16 -18 16 -5
-5z"/>
<path d="M3455 3351 c-3 -5 -2 -12 3 -15 5 -3 9 1 9 9 0 17 -3 19 -12 6z"/>
<path d="M2516 3327 c3 -10 9 -15 12 -12 3 3 0 11 -7 18 -10 9 -11 8 -5 -6z"/>
<path d="M3327 3279 c7 -7 15 -10 18 -7 3 3 -2 9 -12 12 -14 6 -15 5 -6 -5z"/>
<path d="M3474 3262 c4 -3 14 -7 22 -8 9 -1 13 0 10 4 -4 3 -14 7 -22 8 -9 1
-13 0 -10 -4z"/>
<path d="M3536 3262 c-3 -4 4 -9 15 -9 23 -2 25 3 4 10 -8 4 -16 3 -19 -1z"/>
<path d="M3613 3255 c0 -8 4 -12 9 -9 5 3 6 10 3 15 -9 13 -12 11 -12 -6z"/>
<path d="M4245 3260 c-3 -6 1 -7 9 -4 18 7 21 14 7 14 -6 0 -13 -4 -16 -10z"/>
<path d="M4290 3266 c0 -2 7 -7 16 -10 8 -3 12 -2 9 4 -6 10 -25 14 -25 6z"/>
<path d="M4405 3260 c-3 -6 1 -7 9 -4 18 7 21 14 7 14 -6 0 -13 -4 -16 -10z"/>
<path d="M4606 3262 c-3 -5 1 -9 9 -9 8 0 12 4 9 9 -3 4 -7 8 -9 8 -2 0 -6 -4
-9 -8z"/>
<path d="M4670 3261 c0 -6 4 -13 10 -16 6 -3 7 1 4 9 -7 18 -14 21 -14 7z"/>
<path d="M4896 3258 c3 -5 10 -6 15 -3 13 9 11 12 -6 12 -8 0 -12 -4 -9 -9z"/>
<path d="M3410 3239 c0 -5 5 -7 10 -4 6 3 10 8 10 11 0 2 -4 4 -10 4 -5 0 -10
-5 -10 -11z"/>
<path d="M3936 3242 c-3 -5 1 -9 9 -9 8 0 12 4 9 9 -3 4 -7 8 -9 8 -2 0 -6 -4
-9 -8z"/>
<path d="M4046 3242 c-3 -5 1 -9 9 -9 8 0 12 4 9 9 -3 4 -7 8 -9 8 -2 0 -6 -4
-9 -8z"/>
<path d="M4975 3240 c3 -5 8 -10 11 -10 2 0 4 5 4 10 0 6 -5 10 -11 10 -5 0
-7 -4 -4 -10z"/>
<path d="M3310 3219 c0 -5 5 -7 10 -4 6 3 10 8 10 11 0 2 -4 4 -10 4 -5 0 -10
-5 -10 -11z"/>
<path d="M3355 3220 c3 -5 8 -10 11 -10 2 0 4 5 4 10 0 6 -5 10 -11 10 -5 0
-7 -4 -4 -10z"/>
<path d="M3656 3218 c3 -4 11 -5 19 -1 21 7 19 12 -4 10 -11 0 -18 -5 -15 -9z"/>
<path d="M4315 3211 c-3 -5 -2 -12 3 -15 5 -3 9 1 9 9 0 17 -3 19 -12 6z"/>
<path d="M4755 3209 c-4 -6 -5 -12 -2 -15 2 -3 7 2 10 11 7 17 1 20 -8 4z"/>
<path d="M3006 3202 c-3 -5 1 -9 9 -9 8 0 12 4 9 9 -3 4 -7 8 -9 8 -2 0 -6 -4
-9 -8z"/>
<path d="M3445 3200 c-3 -6 1 -7 9 -4 18 7 21 14 7 14 -6 0 -13 -4 -16 -10z"/>
<path d="M3233 3175 c0 -8 4 -12 9 -9 5 3 6 10 3 15 -9 13 -12 11 -12 -6z"/>
<path d="M3590 3180 c0 -5 5 -10 11 -10 5 0 7 5 4 10 -3 6 -8 10 -11 10 -2 0
-4 -4 -4 -10z"/>
<path d="M3646 3178 c3 -5 10 -6 15 -3 13 9 11 12 -6 12 -8 0 -12 -4 -9 -9z"/>
<path d="M3936 3158 c3 -5 10 -6 15 -3 13 9 11 12 -6 12 -8 0 -12 -4 -9 -9z"/>
<path d="M4096 3158 c3 -5 10 -6 15 -3 13 9 11 12 -6 12 -8 0 -12 -4 -9 -9z"/>
<path d="M4256 3158 c3 -5 10 -6 15 -3 13 9 11 12 -6 12 -8 0 -12 -4 -9 -9z"/>
<path d="M4416 3158 c3 -5 10 -6 15 -3 13 9 11 12 -6 12 -8 0 -12 -4 -9 -9z"/>
<path d="M3160 3140 c-9 -6 -10 -10 -3 -10 6 0 15 5 18 10 8 12 4 12 -15 0z"/>
<path d="M3455 3140 c-3 -5 -1 -10 4 -10 6 0 11 5 11 10 0 6 -2 10 -4 10 -3 0
-8 -4 -11 -10z"/>
<path d="M4876 6367 c3 -10 9 -15 12 -12 3 3 0 11 -7 18 -10 9 -11 8 -5 -6z"/>
<path d="M5073 6275 c0 -8 4 -12 9 -9 5 3 6 10 3 15 -9 13 -12 11 -12 -6z"/>
<path d="M1760 5440 c-9 -6 -10 -10 -3 -10 6 0 15 5 18 10 8 12 4 12 -15 0z"/>
<path d="M1807 5439 c7 -7 15 -10 18 -7 3 3 -2 9 -12 12 -14 6 -15 5 -6 -5z"/>
<path d="M5960 5440 c-9 -6 -10 -10 -3 -10 6 0 15 5 18 10 8 12 4 12 -15 0z"/>
<path d="M5985 5360 c-3 -6 1 -7 9 -4 18 7 21 14 7 14 -6 0 -13 -4 -16 -10z"/>
<path d="M1710 5319 c0 -5 5 -7 10 -4 6 3 10 8 10 11 0 2 -4 4 -10 4 -5 0 -10
-5 -10 -11z"/>
<path d="M1626 5238 c3 -5 10 -6 15 -3 13 9 11 12 -6 12 -8 0 -12 -4 -9 -9z"/>
<path d="M1594 5066 c1 -8 5 -18 8 -22 4 -3 5 1 4 10 -1 8 -5 18 -8 22 -4 3
-5 -1 -4 -10z"/>
<path d="M1479 4928 c-5 -18 -6 -38 -1 -34 7 8 12 36 6 36 -2 0 -4 -1 -5 -2z"/>
<path d="M1545 4920 c-3 -6 1 -7 9 -4 18 7 21 14 7 14 -6 0 -13 -4 -16 -10z"/>
<path d="M6226 4802 c-3 -5 1 -9 9 -9 8 0 12 4 9 9 -3 4 -7 8 -9 8 -2 0 -6 -4
-9 -8z"/>
<path d="M1425 4760 c-3 -6 1 -7 9 -4 18 7 21 14 7 14 -6 0 -13 -4 -16 -10z"/>
<path d="M1390 4440 c0 -5 5 -10 11 -10 5 0 7 5 4 10 -3 6 -8 10 -11 10 -2 0
-4 -4 -4 -10z"/>
<path d="M6353 4315 c0 -8 4 -12 9 -9 5 3 6 10 3 15 -9 13 -12 11 -12 -6z"/>
<path d="M6356 4167 c3 -10 9 -15 12 -12 3 3 0 11 -7 18 -10 9 -11 8 -5 -6z"/>
<path d="M1345 4160 c-3 -6 1 -7 9 -4 18 7 21 14 7 14 -6 0 -13 -4 -16 -10z"/>
<path d="M1416 4133 c-6 -14 -5 -15 5 -6 7 7 10 15 7 18 -3 3 -9 -2 -12 -12z"/>
<path d="M1395 4040 c-3 -5 -1 -10 4 -10 6 0 11 5 11 10 0 6 -2 10 -4 10 -3 0
-8 -4 -11 -10z"/>
<path d="M1386 3882 c-3 -5 1 -9 9 -9 8 0 12 4 9 9 -3 4 -7 8 -9 8 -2 0 -6 -4
-9 -8z"/>
<path d="M1395 3721 c-3 -5 -2 -12 3 -15 5 -3 9 1 9 9 0 17 -3 19 -12 6z"/>
<path d="M1555 3120 c-3 -5 -1 -10 4 -10 6 0 11 5 11 10 0 6 -2 10 -4 10 -3 0
-8 -4 -11 -10z"/>
<path d="M1595 3061 c-3 -5 -2 -12 3 -15 5 -3 9 1 9 9 0 17 -3 19 -12 6z"/>
<path d="M5926 3038 c3 -5 10 -6 15 -3 13 9 11 12 -6 12 -8 0 -12 -4 -9 -9z"/>
<path d="M5976 3042 c-3 -5 1 -9 9 -9 8 0 12 4 9 9 -3 4 -7 8 -9 8 -2 0 -6 -4
-9 -8z"/>
<path d="M5875 2991 c-3 -5 -2 -12 3 -15 5 -3 9 1 9 9 0 17 -3 19 -12 6z"/>
<path d="M5855 2880 c3 -5 8 -10 11 -10 2 0 4 5 4 10 0 6 -5 10 -11 10 -5 0
-7 -4 -4 -10z"/>
<path d="M1915 2829 c-4 -6 -5 -12 -2 -15 2 -3 7 2 10 11 7 17 1 20 -8 4z"/>
<path d="M5875 2829 c-4 -6 -5 -12 -2 -15 2 -3 7 2 10 11 7 17 1 20 -8 4z"/>
<path d="M1916 2773 c-6 -14 -5 -15 5 -6 7 7 10 15 7 18 -3 3 -9 -2 -12 -12z"/>
<path d="M2046 2762 c-3 -5 1 -9 9 -9 8 0 12 4 9 9 -3 4 -7 8 -9 8 -2 0 -6 -4
-9 -8z"/>
<path d="M5726 2682 c-3 -5 1 -9 9 -9 8 0 12 4 9 9 -3 4 -7 8 -9 8 -2 0 -6 -4
-9 -8z"/>
<path d="M2273 2615 c0 -8 4 -12 9 -9 5 3 6 10 3 15 -9 13 -12 11 -12 -6z"/>
<path d="M2126 2598 c3 -5 10 -6 15 -3 13 9 11 12 -6 12 -8 0 -12 -4 -9 -9z"/>
<path d="M5275 2589 c-4 -6 -5 -12 -2 -15 2 -3 7 2 10 11 7 17 1 20 -8 4z"/>
<path d="M5395 2589 c-4 -6 -5 -12 -2 -15 2 -3 7 2 10 11 7 17 1 20 -8 4z"/>
<path d="M2156 2533 c-6 -14 -5 -15 5 -6 7 7 10 15 7 18 -3 3 -9 -2 -12 -12z"/>
<path d="M2230 2545 c0 -5 5 -17 10 -25 5 -8 10 -10 10 -5 0 6 -5 17 -10 25
-5 8 -10 11 -10 5z"/>
<path d="M2396 2533 c-6 -14 -5 -15 5 -6 7 7 10 15 7 18 -3 3 -9 -2 -12 -12z"/>
<path d="M5310 2541 c0 -6 4 -13 10 -16 6 -3 7 1 4 9 -7 18 -14 21 -14 7z"/>
<path d="M2475 2520 c3 -5 8 -10 11 -10 2 0 4 5 4 10 0 6 -5 10 -11 10 -5 0
-7 -4 -4 -10z"/>
<path d="M3653 2463 c4 -3 1 -13 -6 -22 -11 -14 -10 -14 5 -2 16 12 16 31 1
31 -4 0 -3 -3 0 -7z"/>
<path d="M4445 2460 c-3 -6 1 -7 9 -4 18 7 21 14 7 14 -6 0 -13 -4 -16 -10z"/>
<path d="M4570 2460 c0 -5 5 -10 11 -10 5 0 7 5 4 10 -3 6 -8 10 -11 10 -2 0
-4 -4 -4 -10z"/>
<path d="M5235 2461 c-3 -5 -2 -12 3 -15 5 -3 9 1 9 9 0 17 -3 19 -12 6z"/>
<path d="M4096 2447 c3 -10 9 -15 12 -12 3 3 0 11 -7 18 -10 9 -11 8 -5 -6z"/>
<path d="M3795 2440 c3 -5 8 -10 11 -10 2 0 4 5 4 10 0 6 -5 10 -11 10 -5 0
-7 -4 -4 -10z"/>
<path d="M4400 2435 c-7 -9 -11 -17 -9 -20 3 -2 10 5 17 15 14 24 10 26 -8 5z"/>
<path d="M5086 2438 c3 -5 10 -6 15 -3 13 9 11 12 -6 12 -8 0 -12 -4 -9 -9z"/>
<path d="M4153 2425 c0 -8 4 -12 9 -9 5 3 6 10 3 15 -9 13 -12 11 -12 -6z"/>
<path d="M4873 2425 c0 -8 4 -12 9 -9 5 3 6 10 3 15 -9 13 -12 11 -12 -6z"/>
<path d="M4719 2418 c-5 -18 -6 -38 -1 -34 7 8 12 36 6 36 -2 0 -4 -1 -5 -2z"/>
<path d="M2716 2398 c3 -5 10 -6 15 -3 13 9 11 12 -6 12 -8 0 -12 -4 -9 -9z"/>
<path d="M3510 2400 c0 -5 5 -10 11 -10 5 0 7 5 4 10 -3 6 -8 10 -11 10 -2 0
-4 -4 -4 -10z"/>
<path d="M5006 2398 c3 -5 10 -6 15 -3 13 9 11 12 -6 12 -8 0 -12 -4 -9 -9z"/>
<path d="M5076 2398 c3 -5 10 -6 15 -3 13 9 11 12 -6 12 -8 0 -12 -4 -9 -9z"/>
<path d="M2516 2373 c-6 -14 -5 -15 5 -6 7 7 10 15 7 18 -3 3 -9 -2 -12 -12z"/>
<path d="M5156 2373 c-6 -14 -5 -15 5 -6 7 7 10 15 7 18 -3 3 -9 -2 -12 -12z"/>
<path d="M4516 2367 c3 -10 9 -15 12 -12 3 3 0 11 -7 18 -10 9 -11 8 -5 -6z"/>
<path d="M2876 2362 c-3 -5 1 -9 9 -9 8 0 12 4 9 9 -3 4 -7 8 -9 8 -2 0 -6 -4
-9 -8z"/>
<path d="M3713 2355 c0 -8 4 -12 9 -9 5 3 6 10 3 15 -9 13 -12 11 -12 -6z"/>
<path d="M3830 2366 c0 -2 7 -7 16 -10 8 -3 12 -2 9 4 -6 10 -25 14 -25 6z"/>
<path d="M4615 2340 c3 -5 8 -10 11 -10 2 0 4 5 4 10 0 6 -5 10 -11 10 -5 0
-7 -4 -4 -10z"/>
<path d="M4700 2340 c-8 -5 -10 -10 -5 -10 6 0 17 5 25 10 8 5 11 10 5 10 -5
0 -17 -5 -25 -10z"/>
<path d="M6875 2751 c-3 -5 -2 -12 3 -15 5 -3 9 1 9 9 0 17 -3 19 -12 6z"/>
<path d="M6750 2446 c0 -2 7 -7 16 -10 8 -3 12 -2 9 4 -6 10 -25 14 -25 6z"/>
<path d="M6396 2158 c3 -5 10 -6 15 -3 13 9 11 12 -6 12 -8 0 -12 -4 -9 -9z"/>
<path d="M5476 1718 c3 -5 10 -6 15 -3 13 9 11 12 -6 12 -8 0 -12 -4 -9 -9z"/>
<path d="M1355 1689 c-4 -6 -5 -12 -2 -15 2 -3 7 2 10 11 7 17 1 20 -8 4z"/>
<path d="M5679 1673 c-13 -16 -12 -17 4 -4 16 13 21 21 13 21 -2 0 -10 -8 -17
-17z"/>
<path d="M6065 1680 c-3 -6 1 -7 9 -4 18 7 21 14 7 14 -6 0 -13 -4 -16 -10z"/>
<path d="M2959 1653 c-13 -17 -13 -17 6 -3 11 8 22 16 24 17 2 2 0 3 -6 3 -6
0 -17 -8 -24 -17z"/>
<path d="M3119 1653 c-13 -17 -13 -17 6 -3 11 8 22 16 24 17 2 2 0 3 -6 3 -6
0 -17 -8 -24 -17z"/>
<path d="M3210 1660 c0 -5 5 -10 11 -10 5 0 7 5 4 10 -3 6 -8 10 -11 10 -2 0
-4 -4 -4 -10z"/>
<path d="M3325 1660 c-3 -6 1 -7 9 -4 18 7 21 14 7 14 -6 0 -13 -4 -16 -10z"/>
<path d="M3645 1660 c-3 -6 1 -7 9 -4 18 7 21 14 7 14 -6 0 -13 -4 -16 -10z"/>
<path d="M3810 1660 c0 -5 5 -10 11 -10 5 0 7 5 4 10 -3 6 -8 10 -11 10 -2 0
-4 -4 -4 -10z"/>
<path d="M4015 1660 c-3 -5 -1 -10 4 -10 6 0 11 5 11 10 0 6 -2 10 -4 10 -3 0
-8 -4 -11 -10z"/>
<path d="M4125 1660 c-3 -6 1 -7 9 -4 18 7 21 14 7 14 -6 0 -13 -4 -16 -10z"/>
<path d="M4585 1660 c-3 -6 1 -7 9 -4 18 7 21 14 7 14 -6 0 -13 -4 -16 -10z"/>
<path d="M3276 1638 c3 -5 10 -6 15 -3 13 9 11 12 -6 12 -8 0 -12 -4 -9 -9z"/>
<path d="M3600 1640 c-9 -6 -10 -10 -3 -10 6 0 15 5 18 10 8 12 4 12 -15 0z"/>
<path d="M3746 1638 c3 -5 10 -6 15 -3 13 9 11 12 -6 12 -8 0 -12 -4 -9 -9z"/>
<path d="M4076 1638 c3 -5 10 -6 15 -3 13 9 11 12 -6 12 -8 0 -12 -4 -9 -9z"/>
<path d="M4630 1640 c0 -5 5 -10 11 -10 5 0 7 5 4 10 -3 6 -8 10 -11 10 -2 0
-4 -4 -4 -10z"/>
<path d="M3446 1602 c-3 -5 1 -9 9 -9 8 0 12 4 9 9 -3 4 -7 8 -9 8 -2 0 -6 -4
-9 -8z"/>
<path d="M6346 1602 c-3 -5 1 -9 9 -9 8 0 12 4 9 9 -3 4 -7 8 -9 8 -2 0 -6 -4
-9 -8z"/>
<path d="M2675 1571 c-3 -5 -2 -12 3 -15 5 -3 9 1 9 9 0 17 -3 19 -12 6z"/>
<path d="M4753 1565 c0 -8 4 -12 9 -9 5 3 6 10 3 15 -9 13 -12 11 -12 -6z"/>
<path d="M2266 1562 c-3 -5 1 -9 9 -9 8 0 12 4 9 9 -3 4 -7 8 -9 8 -2 0 -6 -4
-9 -8z"/>
<path d="M2506 1562 c-3 -5 1 -9 9 -9 8 0 12 4 9 9 -3 4 -7 8 -9 8 -2 0 -6 -4
-9 -8z"/>
<path d="M4435 1560 c3 -5 8 -10 11 -10 2 0 4 5 4 10 0 6 -5 10 -11 10 -5 0
-7 -4 -4 -10z"/>
<path d="M5226 1558 c3 -5 10 -6 15 -3 13 9 11 12 -6 12 -8 0 -12 -4 -9 -9z"/>
<path d="M2795 1531 c-3 -5 -2 -12 3 -15 5 -3 9 1 9 9 0 17 -3 19 -12 6z"/>
<path d="M3509 1523 c-13 -16 -12 -17 4 -4 16 13 21 21 13 21 -2 0 -10 -8 -17
-17z"/>
<path d="M2275 1520 c-3 -5 -1 -10 4 -10 6 0 11 5 11 10 0 6 -2 10 -4 10 -3 0
-8 -4 -11 -10z"/>
<path d="M5916 1487 c3 -10 9 -15 12 -12 3 3 0 11 -7 18 -10 9 -11 8 -5 -6z"/>
<path d="M4996 1482 c-3 -5 1 -9 9 -9 8 0 12 4 9 9 -3 4 -7 8 -9 8 -2 0 -6 -4
-9 -8z"/>
<path d="M3747 1439 c7 -7 15 -10 18 -7 3 3 -2 9 -12 12 -14 6 -15 5 -6 -5z"/>
<path d="M4256 1438 c3 -5 10 -6 15 -3 13 9 11 12 -6 12 -8 0 -12 -4 -9 -9z"/>
<path d="M4576 1438 c3 -5 10 -6 15 -3 13 9 11 12 -6 12 -8 0 -12 -4 -9 -9z"/>
<path d="M3155 1411 c-3 -5 -2 -12 3 -15 5 -3 9 1 9 9 0 17 -3 19 -12 6z"/>
<path d="M3633 1405 c0 -8 4 -12 9 -9 5 3 6 10 3 15 -9 13 -12 11 -12 -6z"/>
<path d="M3076 1402 c-3 -5 1 -9 9 -9 8 0 12 4 9 9 -3 4 -7 8 -9 8 -2 0 -6 -4
-9 -8z"/>
<path d="M4116 1402 c-3 -5 1 -9 9 -9 8 0 12 4 9 9 -3 4 -7 8 -9 8 -2 0 -6 -4
-9 -8z"/>
<path d="M4666 1398 c3 -5 10 -6 15 -3 13 9 11 12 -6 12 -8 0 -12 -4 -9 -9z"/>
<path d="M5826 1402 c-3 -5 1 -9 9 -9 8 0 15 4 15 9 0 4 -4 8 -9 8 -6 0 -12
-4 -15 -8z"/>
<path d="M4196 1362 c-3 -5 1 -9 9 -9 8 0 12 4 9 9 -3 4 -7 8 -9 8 -2 0 -6 -4
-9 -8z"/>
<path d="M5795 1361 c-3 -5 -2 -12 3 -15 5 -3 9 1 9 9 0 17 -3 19 -12 6z"/>
<path d="M5119 1273 c-13 -16 -12 -17 4 -4 9 7 17 15 17 17 0 8 -8 3 -21 -13z"/>
<path d="M2275 1200 c-3 -5 -1 -10 4 -10 6 0 11 5 11 10 0 6 -2 10 -4 10 -3 0
-8 -4 -11 -10z"/>
<path d="M3390 1201 c0 -6 4 -13 10 -16 6 -3 7 1 4 9 -7 18 -14 21 -14 7z"/>
<path d="M2590 1166 c0 -2 7 -7 16 -10 8 -3 12 -2 9 4 -6 10 -25 14 -25 6z"/>
<path d="M3106 1162 c-3 -5 1 -9 9 -9 8 0 12 4 9 9 -3 4 -7 8 -9 8 -2 0 -6 -4
-9 -8z"/>
<path d="M3795 1160 c3 -5 8 -10 11 -10 2 0 4 5 4 10 0 6 -5 10 -11 10 -5 0
-7 -4 -4 -10z"/>
<path d="M4240 1126 c0 -2 8 -10 18 -17 15 -13 16 -12 3 4 -13 16 -21 21 -21
13z"/>
<path d="M4836 1122 c-3 -5 1 -9 9 -9 8 0 12 4 9 9 -3 4 -7 8 -9 8 -2 0 -6 -4
-9 -8z"/>
<path d="M3669 1103 c-13 -16 -12 -17 4 -4 9 7 17 15 17 17 0 8 -8 3 -21 -13z"/>
<path d="M4045 1040 c-3 -6 1 -7 9 -4 18 7 21 14 7 14 -6 0 -13 -4 -16 -10z"/>
</g>
</svg>
